<svg id="svg" version="1.1" width="400" height="400" viewBox="0 0 400 400" xmlns="http://www.w3.org/2000/svg" xmlns:xlink="http://www.w3.org/1999/xlink" ><g id="svgg"><path id="path0" d="M182.463 0.169 C 181.477 0.221,180.510 0.393,180.313 0.552 C 180.032 0.780,179.994 0.777,180.136 0.541 C 180.236 0.376,180.202 0.240,180.062 0.240 C 179.922 0.240,179.807 0.322,179.807 0.421 C 179.807 0.520,179.077 0.628,178.185 0.661 C 177.292 0.694,175.913 0.828,175.120 0.960 C 174.327 1.092,173.245 1.252,172.716 1.316 C 172.188 1.380,171.376 1.492,170.913 1.564 C 170.451 1.636,169.315 1.809,168.389 1.947 C 166.240 2.269,166.116 2.292,165.332 2.511 C 164.972 2.611,164.269 2.724,163.769 2.763 C 162.321 2.875,160.737 3.145,160.216 3.367 C 159.702 3.587,158.643 3.800,157.091 3.994 C 156.563 4.060,155.913 4.207,155.649 4.322 C 155.222 4.507,154.480 4.715,153.365 4.963 C 153.167 5.007,152.734 5.064,152.404 5.089 C 152.073 5.115,151.679 5.228,151.528 5.340 C 151.377 5.453,150.944 5.592,150.566 5.650 C 150.189 5.708,149.501 5.849,149.038 5.964 C 147.879 6.251,147.886 6.249,147.478 6.377 C 147.279 6.439,146.952 6.542,146.752 6.604 C 146.553 6.666,146.338 6.725,146.275 6.734 C 146.212 6.743,145.713 6.908,145.165 7.101 C 144.618 7.294,143.859 7.452,143.479 7.452 C 143.099 7.452,142.788 7.560,142.788 7.692 C 142.788 7.825,142.524 7.933,142.202 7.933 C 141.879 7.933,141.557 8.027,141.486 8.142 C 141.415 8.256,140.949 8.418,140.450 8.500 C 139.951 8.582,139.233 8.813,138.855 9.012 C 138.476 9.212,137.904 9.375,137.584 9.375 C 137.264 9.375,136.736 9.550,136.410 9.763 C 136.084 9.977,135.817 10.072,135.817 9.974 C 135.817 9.877,135.653 9.933,135.452 10.100 C 135.252 10.266,134.900 10.425,134.671 10.453 C 133.700 10.569,132.692 10.893,132.692 11.088 C 132.692 11.203,132.474 11.298,132.208 11.298 C 131.942 11.298,131.536 11.394,131.307 11.510 C 130.567 11.887,129.710 12.221,128.726 12.517 C 127.483 12.892,127.141 13.028,125.120 13.952 C 124.195 14.375,123.305 14.742,123.144 14.766 C 122.983 14.790,122.775 14.885,122.683 14.977 C 122.591 15.069,122.318 15.144,122.075 15.144 C 121.833 15.144,121.635 15.252,121.635 15.385 C 121.635 15.517,121.471 15.625,121.271 15.625 C 121.071 15.625,120.719 15.721,120.490 15.837 C 120.260 15.954,119.802 16.155,119.471 16.284 C 119.141 16.413,118.400 16.750,117.826 17.033 C 117.251 17.316,116.629 17.548,116.444 17.548 C 116.258 17.548,116.106 17.656,116.106 17.788 C 116.106 17.921,115.896 18.029,115.639 18.029 C 115.383 18.029,115.106 18.137,115.024 18.269 C 114.942 18.401,114.693 18.512,114.469 18.515 C 114.245 18.518,113.792 18.732,113.462 18.990 C 113.131 19.249,112.698 19.465,112.500 19.471 C 112.302 19.477,111.869 19.693,111.538 19.952 C 111.208 20.210,110.784 20.424,110.596 20.427 C 110.408 20.430,110.052 20.616,109.804 20.840 C 109.556 21.064,109.121 21.283,108.836 21.327 C 108.551 21.370,108.151 21.558,107.945 21.743 C 107.740 21.929,107.464 22.102,107.332 22.127 C 106.727 22.243,106.083 22.579,105.790 22.932 C 105.614 23.144,105.267 23.317,105.019 23.317 C 104.770 23.317,104.567 23.425,104.567 23.558 C 104.567 23.690,104.351 23.798,104.087 23.798 C 103.822 23.798,103.606 23.895,103.606 24.012 C 103.606 24.130,103.200 24.399,102.704 24.611 C 101.575 25.091,99.773 26.132,99.219 26.624 C 98.987 26.830,98.798 26.922,98.798 26.829 C 98.798 26.736,98.319 26.989,97.733 27.392 C 97.147 27.795,96.558 28.125,96.423 28.125 C 96.288 28.125,96.067 28.314,95.933 28.546 C 95.798 28.777,95.684 28.869,95.680 28.749 C 95.676 28.630,95.484 28.738,95.252 28.990 C 95.021 29.241,94.670 29.483,94.473 29.526 C 94.276 29.570,94.060 29.678,93.993 29.767 C 93.925 29.856,93.546 30.085,93.149 30.277 C 92.752 30.469,91.995 30.934,91.466 31.312 C 90.938 31.690,89.929 32.361,89.226 32.804 C 88.522 33.247,87.784 33.808,87.585 34.052 C 87.386 34.296,87.297 34.352,87.387 34.177 C 87.477 34.002,87.051 34.240,86.441 34.706 C 85.830 35.172,85.008 35.744,84.613 35.977 C 84.218 36.211,83.894 36.487,83.894 36.590 C 83.894 36.694,83.745 36.779,83.562 36.779 C 83.380 36.779,82.877 37.130,82.445 37.560 C 82.012 37.990,81.745 38.179,81.851 37.981 C 81.957 37.782,81.670 37.972,81.215 38.401 C 80.759 38.831,80.261 39.183,80.109 39.183 C 79.956 39.183,79.721 39.372,79.587 39.603 C 79.452 39.835,79.338 39.940,79.334 39.838 C 79.328 39.678,78.992 39.948,77.310 41.467 C 77.163 41.599,76.568 42.016,75.988 42.394 C 75.407 42.771,74.583 43.420,74.155 43.836 C 73.728 44.251,73.028 44.862,72.601 45.192 C 72.174 45.523,71.699 45.911,71.545 46.055 C 71.391 46.199,71.144 46.361,70.996 46.416 C 70.709 46.521,67.603 49.284,65.415 51.382 C 64.691 52.076,64.003 52.644,63.886 52.644 C 63.769 52.644,63.740 52.752,63.822 52.885 C 63.904 53.017,63.837 53.125,63.674 53.125 C 63.361 53.125,62.894 53.548,59.230 57.147 C 57.988 58.367,56.971 59.452,56.971 59.559 C 56.971 59.665,56.645 59.945,56.246 60.181 C 55.847 60.416,55.584 60.713,55.663 60.839 C 55.741 60.966,55.713 61.040,55.601 61.004 C 55.489 60.967,54.968 61.422,54.442 62.015 C 53.916 62.607,53.248 63.357,52.958 63.681 C 52.667 64.005,52.486 64.361,52.555 64.473 C 52.624 64.584,52.537 64.646,52.362 64.609 C 52.187 64.573,52.073 64.687,52.109 64.862 C 52.146 65.037,52.086 65.125,51.978 65.058 C 51.696 64.884,51.472 65.084,50.126 66.707 C 48.719 68.404,47.670 69.596,46.974 70.292 C 46.698 70.568,46.271 71.105,46.025 71.485 C 45.570 72.189,44.525 73.456,43.600 74.426 C 43.318 74.721,42.838 75.322,42.531 75.762 C 42.224 76.202,41.338 77.347,40.563 78.305 C 39.787 79.264,39.220 80.048,39.303 80.048 C 39.386 80.048,39.069 80.454,38.599 80.950 C 38.129 81.445,37.744 82.029,37.742 82.246 C 37.741 82.463,37.601 82.695,37.430 82.760 C 37.136 82.873,35.255 85.476,34.290 87.107 C 34.044 87.522,33.747 87.897,33.628 87.941 C 33.510 87.985,33.413 88.157,33.413 88.324 C 33.413 88.491,33.200 88.821,32.939 89.057 C 32.678 89.293,32.399 89.692,32.319 89.943 C 32.239 90.195,31.922 90.672,31.614 91.005 C 31.306 91.337,30.864 92.008,30.633 92.496 C 30.401 92.984,29.844 93.906,29.395 94.545 C 28.570 95.719,27.930 96.779,27.119 98.317 C 26.619 99.267,26.140 100.062,25.962 100.240 C 25.780 100.422,25.193 101.472,24.820 102.284 C 24.638 102.680,24.384 103.167,24.257 103.365 C 24.129 103.564,23.961 103.915,23.883 104.147 C 23.806 104.378,23.646 104.567,23.530 104.567 C 23.413 104.567,23.317 104.767,23.317 105.011 C 23.317 105.255,23.101 105.650,22.837 105.889 C 22.572 106.129,22.356 106.524,22.356 106.768 C 22.356 107.012,22.248 107.212,22.115 107.212 C 21.983 107.212,21.875 107.428,21.875 107.692 C 21.875 107.957,21.779 108.173,21.661 108.173 C 21.543 108.173,21.372 108.471,21.281 108.834 C 21.191 109.198,20.972 109.657,20.796 109.856 C 20.620 110.054,20.439 110.430,20.394 110.692 C 20.349 110.953,20.150 111.362,19.952 111.601 C 19.754 111.840,19.606 112.112,19.623 112.207 C 19.640 112.302,19.505 112.593,19.322 112.854 C 19.140 113.115,18.990 113.520,18.990 113.755 C 18.990 113.990,18.882 114.183,18.750 114.183 C 18.618 114.183,18.510 114.289,18.510 114.418 C 18.510 114.548,18.070 115.603,17.532 116.762 C 16.994 117.922,16.440 119.141,16.302 119.471 C 16.163 119.802,15.954 120.260,15.837 120.490 C 15.721 120.719,15.625 121.071,15.625 121.271 C 15.625 121.471,15.539 121.635,15.433 121.635 C 15.327 121.635,15.105 122.040,14.939 122.536 C 14.624 123.478,13.901 125.249,13.248 126.683 C 13.037 127.145,12.849 127.632,12.830 127.764 C 12.811 127.897,12.770 128.086,12.738 128.185 C 12.706 128.284,12.657 128.447,12.629 128.546 C 12.533 128.888,11.953 130.392,11.587 131.250 C 11.445 131.581,11.192 132.284,11.025 132.813 C 10.857 133.341,10.633 133.877,10.528 134.002 C 10.423 134.128,10.337 134.427,10.337 134.667 C 10.337 134.906,10.241 135.291,10.124 135.520 C 9.646 136.460,9.381 137.172,9.297 137.740 C 9.248 138.071,9.127 138.558,9.028 138.822 C 8.300 140.760,8.196 141.106,8.343 141.106 C 8.435 141.106,8.380 141.236,8.221 141.394 C 8.062 141.553,7.933 141.925,7.933 142.221 C 7.933 142.518,7.840 142.817,7.727 142.887 C 7.613 142.957,7.381 143.694,7.210 144.524 C 7.039 145.354,6.792 146.171,6.661 146.340 C 6.529 146.508,6.488 146.712,6.568 146.792 C 6.648 146.873,6.591 147.167,6.440 147.447 C 6.289 147.728,6.075 148.389,5.964 148.918 C 5.853 149.447,5.705 150.150,5.635 150.481 C 5.566 150.811,5.506 151.273,5.504 151.508 C 5.502 151.742,5.391 151.866,5.258 151.784 C 5.125 151.702,5.047 151.781,5.084 151.959 C 5.166 152.350,4.563 155.309,4.332 155.649 C 4.242 155.781,4.145 156.313,4.117 156.830 C 4.089 157.348,3.996 157.885,3.910 158.023 C 3.714 158.340,3.366 160.103,3.203 161.599 C 3.135 162.227,2.981 162.740,2.861 162.740 C 2.742 162.740,2.644 162.855,2.644 162.995 C 2.644 163.135,2.752 163.183,2.885 163.101 C 3.017 163.019,3.125 163.067,3.125 163.207 C 3.125 163.347,3.010 163.462,2.870 163.462 C 2.729 163.462,2.646 163.653,2.686 163.887 C 2.726 164.120,2.634 164.742,2.482 165.269 C 2.104 166.584,1.683 169.496,1.683 170.798 C 1.683 171.390,1.591 171.875,1.479 171.875 C 1.368 171.875,1.256 172.483,1.232 173.226 C 1.208 173.969,1.103 174.753,1.000 174.969 C 0.897 175.184,0.784 176.118,0.749 177.043 C 0.714 177.969,0.596 179.159,0.486 179.688 C -0.070 182.358,-0.070 217.642,0.486 220.313 C 0.596 220.841,0.714 222.031,0.749 222.957 C 0.784 223.882,0.897 224.816,1.000 225.031 C 1.103 225.247,1.208 226.031,1.232 226.774 C 1.256 227.517,1.356 228.125,1.454 228.125 C 1.552 228.125,1.693 228.963,1.767 229.988 C 1.940 232.366,2.245 234.411,2.486 234.797 C 2.589 234.963,2.714 235.558,2.762 236.119 C 2.945 238.231,3.194 239.678,3.396 239.803 C 3.512 239.874,3.606 240.257,3.606 240.655 C 3.606 241.053,3.710 241.572,3.836 241.809 C 3.963 242.045,4.090 242.660,4.118 243.175 C 4.146 243.690,4.242 244.219,4.332 244.351 C 4.563 244.691,5.166 247.650,5.084 248.041 C 5.047 248.219,5.125 248.298,5.258 248.216 C 5.391 248.134,5.502 248.258,5.504 248.492 C 5.506 248.727,5.568 249.189,5.641 249.519 C 5.714 249.850,5.842 250.499,5.925 250.962 C 6.008 251.424,6.169 251.863,6.282 251.937 C 6.395 252.010,6.508 252.389,6.533 252.778 C 6.557 253.167,6.650 253.594,6.738 253.726 C 6.827 253.858,7.039 254.646,7.210 255.476 C 7.381 256.306,7.613 257.043,7.727 257.113 C 7.840 257.183,7.933 257.482,7.933 257.779 C 7.933 258.075,8.062 258.447,8.221 258.606 C 8.380 258.764,8.432 258.894,8.338 258.894 C 8.244 258.894,8.330 259.286,8.530 259.765 C 8.731 260.244,8.894 260.839,8.894 261.087 C 8.894 261.335,8.979 261.538,9.082 261.538 C 9.186 261.538,9.293 261.836,9.320 262.200 C 9.366 262.809,9.574 263.399,10.124 264.480 C 10.241 264.709,10.337 265.094,10.337 265.333 C 10.337 265.573,10.423 265.872,10.528 265.998 C 10.633 266.123,10.857 266.659,11.025 267.188 C 11.192 267.716,11.431 268.392,11.554 268.690 C 12.117 270.044,12.536 271.124,12.629 271.454 C 12.657 271.553,12.706 271.716,12.738 271.815 C 12.770 271.914,12.811 272.103,12.830 272.236 C 12.849 272.368,13.037 272.855,13.248 273.317 C 14.057 275.092,14.784 276.770,14.803 276.904 C 14.892 277.537,15.236 278.365,15.411 278.365 C 15.529 278.365,15.625 278.575,15.625 278.832 C 15.625 279.089,15.733 279.365,15.865 279.447 C 15.998 279.529,16.106 279.767,16.106 279.976 C 16.106 280.185,16.755 281.696,17.548 283.332 C 18.341 284.968,18.990 286.361,18.990 286.426 C 18.990 286.680,20.735 290.154,20.920 290.269 C 21.028 290.335,21.188 290.713,21.275 291.109 C 21.361 291.504,21.532 291.827,21.654 291.827 C 21.775 291.827,21.875 292.043,21.875 292.308 C 21.875 292.572,21.983 292.788,22.115 292.788 C 22.248 292.788,22.356 292.988,22.356 293.232 C 22.356 293.476,22.572 293.871,22.837 294.111 C 23.101 294.350,23.317 294.702,23.317 294.892 C 23.317 295.082,23.520 295.525,23.767 295.876 C 24.015 296.227,24.429 296.947,24.688 297.476 C 25.405 298.939,26.174 300.235,26.850 301.122 C 27.186 301.563,27.387 301.923,27.296 301.923 C 27.205 301.923,27.331 302.221,27.576 302.584 C 27.822 302.948,28.171 303.541,28.352 303.902 C 28.534 304.264,28.882 304.773,29.125 305.034 C 29.368 305.295,29.567 305.621,29.567 305.759 C 29.567 305.897,29.675 306.010,29.808 306.010 C 29.940 306.010,30.048 306.226,30.048 306.490 C 30.048 306.755,30.156 306.971,30.288 306.971 C 30.421 306.971,30.529 307.084,30.529 307.221 C 30.529 307.634,32.121 309.866,32.293 309.694 C 32.380 309.607,32.452 309.716,32.452 309.936 C 32.452 310.156,32.560 310.337,32.692 310.337 C 32.825 310.337,32.910 310.418,32.882 310.517 C 32.804 310.789,33.432 311.849,33.928 312.284 C 34.169 312.496,34.312 312.724,34.245 312.791 C 34.178 312.858,34.288 313.049,34.489 313.216 C 34.691 313.384,34.856 313.669,34.856 313.852 C 34.856 314.034,34.938 314.183,35.039 314.183 C 35.140 314.183,35.490 314.615,35.817 315.144 C 36.144 315.673,36.494 316.106,36.595 316.106 C 36.696 316.106,36.779 316.251,36.779 316.429 C 36.779 316.607,36.995 316.948,37.260 317.188 C 37.524 317.427,37.741 317.741,37.741 317.886 C 37.742 318.031,38.067 318.495,38.463 318.917 C 38.859 319.340,39.183 319.779,39.183 319.894 C 39.183 320.008,39.372 320.311,39.603 320.568 C 40.735 321.821,42.067 323.528,42.067 323.724 C 42.067 323.845,42.483 324.371,42.990 324.892 C 43.498 325.414,44.491 326.599,45.196 327.524 C 45.902 328.450,46.704 329.426,46.978 329.694 C 47.252 329.962,47.963 330.770,48.558 331.490 C 49.153 332.209,49.991 333.146,50.421 333.570 C 50.850 333.995,51.202 334.458,51.202 334.599 C 51.202 334.740,51.290 334.856,51.397 334.856 C 51.662 334.856,52.318 335.504,53.606 337.038 C 55.592 339.405,63.289 346.875,63.741 346.875 C 63.984 346.875,64.183 347.010,64.184 347.175 C 64.186 347.471,65.310 348.579,68.271 351.202 C 69.092 351.929,70.145 352.876,70.612 353.305 C 71.079 353.735,71.573 354.087,71.708 354.087 C 71.844 354.087,72.252 354.367,72.614 354.710 C 72.977 355.052,73.635 355.676,74.077 356.096 C 74.518 356.515,75.258 357.124,75.721 357.448 C 76.184 357.772,76.705 358.176,76.880 358.345 C 77.055 358.515,77.271 358.657,77.361 358.662 C 77.451 358.666,78.054 359.149,78.702 359.736 C 79.350 360.322,79.972 360.744,80.084 360.675 C 80.196 360.605,80.288 360.636,80.288 360.743 C 80.288 360.939,83.256 363.221,83.511 363.221 C 83.587 363.221,83.839 363.376,84.072 363.566 C 85.504 364.733,86.831 365.625,87.133 365.625 C 87.326 365.625,87.599 365.841,87.740 366.106 C 87.882 366.370,88.113 366.587,88.255 366.587 C 88.397 366.587,88.834 366.857,89.227 367.187 C 89.619 367.518,90.069 367.788,90.225 367.788 C 90.382 367.788,90.794 368.052,91.142 368.375 C 91.491 368.698,91.841 368.896,91.921 368.816 C 92.002 368.736,92.067 368.791,92.067 368.939 C 92.067 369.087,92.473 369.398,92.969 369.631 C 93.465 369.864,94.014 370.194,94.190 370.366 C 94.366 370.537,94.590 370.628,94.687 370.568 C 94.785 370.508,95.012 370.663,95.192 370.913 C 95.373 371.164,95.609 371.314,95.717 371.247 C 95.825 371.180,95.913 371.231,95.913 371.360 C 95.913 371.489,96.619 371.938,97.482 372.358 C 98.344 372.779,99.196 373.269,99.375 373.448 C 99.744 373.816,100.903 374.494,103.005 375.568 C 103.798 375.974,104.483 376.390,104.527 376.494 C 104.571 376.598,104.801 376.683,105.039 376.683 C 105.276 376.683,105.603 376.842,105.765 377.038 C 106.085 377.423,108.384 378.609,108.983 378.697 C 109.186 378.726,109.546 378.907,109.784 379.099 C 110.022 379.290,110.757 379.701,111.418 380.012 C 112.079 380.323,112.808 380.675,113.038 380.793 C 113.267 380.912,113.610 381.010,113.799 381.010 C 113.988 381.010,114.179 381.108,114.223 381.228 C 114.267 381.348,114.519 381.483,114.784 381.528 C 115.048 381.574,115.319 381.667,115.385 381.737 C 115.681 382.048,119.634 383.898,119.998 383.896 C 120.221 383.895,120.471 384.002,120.553 384.135 C 120.635 384.267,120.911 384.375,121.168 384.375 C 121.425 384.375,121.635 384.483,121.635 384.615 C 121.635 384.748,121.829 384.856,122.067 384.856 C 122.305 384.856,122.630 384.986,122.788 385.144 C 122.947 385.303,123.077 385.351,123.077 385.251 C 123.077 385.151,123.374 385.229,123.738 385.425 C 124.102 385.620,124.940 386.013,125.601 386.297 C 126.262 386.581,126.991 386.914,127.220 387.036 C 127.450 387.159,127.856 387.260,128.122 387.260 C 128.388 387.260,128.606 387.368,128.606 387.500 C 128.606 387.632,128.878 387.740,129.210 387.740 C 129.542 387.740,130.029 387.849,130.292 387.981 C 130.554 388.113,130.984 388.329,131.247 388.462 C 131.509 388.594,131.933 388.702,132.188 388.702 C 132.443 388.702,132.689 388.812,132.734 388.947 C 132.779 389.082,133.166 389.218,133.595 389.248 C 134.023 389.278,134.374 389.384,134.375 389.483 C 134.375 389.582,134.585 389.663,134.842 389.663 C 135.098 389.663,135.376 389.773,135.459 389.908 C 135.542 390.042,135.695 390.100,135.799 390.036 C 135.902 389.972,136.192 390.075,136.443 390.264 C 136.694 390.454,137.197 390.613,137.560 390.617 C 137.924 390.622,138.221 390.714,138.221 390.823 C 138.221 390.931,138.931 391.168,139.798 391.349 C 140.665 391.530,141.428 391.766,141.495 391.873 C 141.561 391.980,141.879 392.067,142.202 392.067 C 142.524 392.067,142.788 392.164,142.788 392.282 C 142.788 392.401,143.194 392.557,143.690 392.629 C 145.285 392.863,146.154 393.079,146.154 393.244 C 146.154 393.332,146.440 393.428,146.791 393.457 C 147.141 393.486,147.574 393.631,147.752 393.780 C 147.931 393.928,148.077 393.993,148.077 393.925 C 148.077 393.857,148.537 393.907,149.099 394.037 C 149.660 394.166,150.387 394.324,150.714 394.386 C 151.040 394.449,151.419 394.582,151.555 394.683 C 151.691 394.784,152.019 394.878,152.284 394.892 C 152.548 394.906,153.035 394.978,153.365 395.052 C 153.696 395.126,154.291 395.257,154.688 395.342 C 155.084 395.427,155.517 395.572,155.649 395.664 C 155.781 395.756,156.310 395.854,156.825 395.882 C 157.340 395.910,157.955 396.037,158.191 396.164 C 158.428 396.290,158.947 396.394,159.345 396.394 C 159.743 396.394,160.126 396.488,160.197 396.604 C 160.323 396.808,161.788 397.058,163.914 397.239 C 164.493 397.288,165.142 397.399,165.356 397.486 C 165.570 397.572,166.070 397.690,166.466 397.748 C 166.863 397.806,167.707 397.958,168.341 398.086 C 168.976 398.213,170.030 398.317,170.685 398.317 C 171.339 398.317,171.875 398.408,171.875 398.518 C 171.875 398.629,172.335 398.736,172.897 398.757 C 173.459 398.777,174.459 398.900,175.120 399.030 C 175.781 399.160,177.106 399.296,178.065 399.333 C 179.023 399.369,179.807 399.480,179.807 399.579 C 179.808 399.678,179.922 399.760,180.062 399.760 C 180.202 399.760,180.236 399.624,180.136 399.459 C 180.033 399.287,180.145 399.312,180.399 399.519 C 180.786 399.833,183.329 399.880,200.000 399.880 C 216.671 399.880,219.214 399.833,219.601 399.519 C 219.855 399.312,219.967 399.287,219.864 399.459 C 219.764 399.624,219.798 399.760,219.938 399.760 C 220.078 399.760,220.192 399.678,220.192 399.579 C 220.192 399.480,221.181 399.363,222.390 399.320 C 223.599 399.276,224.845 399.143,225.159 399.024 C 225.473 398.904,226.269 398.788,226.928 398.764 C 227.586 398.741,228.125 398.631,228.125 398.520 C 228.125 398.408,228.661 398.317,229.315 398.317 C 229.970 398.317,231.024 398.213,231.659 398.086 C 232.293 397.958,233.137 397.806,233.534 397.748 C 233.930 397.690,234.430 397.572,234.644 397.486 C 234.858 397.399,235.507 397.288,236.086 397.239 C 238.212 397.058,239.677 396.808,239.803 396.604 C 239.874 396.488,240.257 396.394,240.655 396.394 C 241.053 396.394,241.572 396.290,241.809 396.164 C 242.045 396.037,242.660 395.910,243.175 395.882 C 243.690 395.854,244.219 395.756,244.351 395.664 C 244.483 395.572,244.916 395.427,245.313 395.342 C 245.709 395.257,246.304 395.126,246.635 395.052 C 246.965 394.978,247.452 394.906,247.716 394.892 C 247.981 394.878,248.309 394.784,248.445 394.683 C 248.581 394.582,248.960 394.449,249.286 394.386 C 249.613 394.324,250.340 394.166,250.901 394.037 C 251.463 393.907,251.923 393.857,251.923 393.925 C 251.923 393.993,252.069 393.928,252.248 393.780 C 252.426 393.631,252.859 393.486,253.209 393.457 C 253.560 393.428,253.846 393.332,253.846 393.244 C 253.846 393.079,254.715 392.863,256.310 392.629 C 256.806 392.557,257.212 392.401,257.212 392.282 C 257.212 392.164,257.429 392.067,257.696 392.067 C 257.962 392.067,258.367 391.972,258.597 391.856 C 259.298 391.502,260.702 391.106,261.255 391.106 C 261.543 391.106,261.779 390.998,261.779 390.865 C 261.779 390.733,262.076 390.622,262.440 390.617 C 262.803 390.613,263.306 390.454,263.557 390.264 C 263.808 390.075,264.098 389.972,264.201 390.036 C 264.305 390.100,264.458 390.042,264.541 389.908 C 264.624 389.773,264.902 389.663,265.158 389.663 C 265.415 389.663,265.625 389.582,265.625 389.483 C 265.626 389.384,265.969 389.279,266.389 389.249 C 266.808 389.220,267.213 389.095,267.290 388.973 C 267.366 388.851,267.697 388.712,268.026 388.666 C 268.356 388.620,268.657 388.414,268.696 388.210 C 268.756 387.893,199.566 318.412,198.591 317.809 C 196.362 316.431,182.694 302.459,178.365 297.132 C 177.903 296.563,177.064 295.565,176.502 294.915 C 175.941 294.266,175.481 293.617,175.481 293.474 C 175.481 292.648,170.719 287.743,141.365 258.327 C 103.212 220.093,108.533 225.366,106.010 223.294 C 105.488 222.865,105.472 222.813,105.889 222.900 C 106.205 222.966,105.866 222.496,104.899 221.530 C 101.390 218.021,100.349 211.094,102.667 206.677 C 102.953 206.132,102.952 206.132,102.439 206.588 C 102.031 206.950,101.923 206.971,101.923 206.691 C 101.923 205.994,86.707 190.577,84.046 188.578 C 83.534 188.194,83.240 187.838,83.393 187.787 C 83.545 187.737,83.829 187.827,84.023 187.987 C 84.216 188.148,84.375 188.227,84.375 188.163 C 84.375 187.875,82.122 186.325,81.902 186.461 C 81.767 186.545,81.723 186.504,81.805 186.372 C 81.887 186.240,81.623 185.817,81.219 185.433 C 74.905 179.436,72.911 168.853,76.593 160.883 C 78.947 155.788,85.414 150.049,91.226 147.897 C 91.623 147.750,92.679 147.357,93.573 147.024 C 101.717 143.987,118.260 142.252,126.997 143.520 C 132.509 144.320,136.769 145.168,140.651 146.239 C 148.031 148.275,157.227 151.946,166.707 156.640 C 169.219 157.884,171.086 158.754,170.856 158.573 C 170.459 158.261,170.461 158.222,170.884 157.839 C 171.130 157.616,171.398 156.948,171.479 156.355 C 171.681 154.884,172.641 152.092,173.798 149.610 C 174.912 147.221,174.929 147.102,174.249 146.492 C 172.999 145.372,169.627 139.676,168.884 137.432 C 166.592 130.505,166.330 121.524,168.287 116.947 C 168.400 116.683,168.721 115.763,169.000 114.904 C 170.333 110.790,174.185 105.259,177.964 102.034 C 178.846 101.281,179.567 100.530,179.567 100.366 C 179.567 99.969,170.754 91.263,168.934 89.861 C 166.924 88.314,166.654 85.546,168.348 83.853 C 170.333 81.867,172.734 82.042,174.776 84.322 C 175.319 84.927,175.938 85.343,176.459 85.451 C 182.543 86.718,187.112 89.114,192.081 93.645 L 193.176 94.644 194.605 94.433 C 196.899 94.095,201.188 94.112,202.923 94.465 L 204.523 94.791 206.270 93.197 C 210.689 89.163,218.340 85.337,221.985 85.337 C 222.329 85.337,222.700 85.085,222.960 84.675 C 224.699 81.935,228.350 81.805,230.008 84.425 C 230.545 85.273,287.953 142.788,288.263 142.788 C 288.733 142.788,288.410 143.272,287.921 143.302 C 287.623 143.320,288.299 143.420,289.423 143.524 C 302.775 144.759,312.224 148.231,318.466 154.195 C 319.507 155.189,320.439 155.923,320.536 155.826 C 320.633 155.729,320.691 155.757,320.665 155.889 C 320.575 156.335,320.682 156.608,321.182 157.212 C 321.455 157.542,321.628 157.650,321.566 157.452 C 321.503 157.254,338.504 174.155,359.344 195.011 C 380.184 215.867,397.354 232.932,397.498 232.932 C 397.901 232.933,398.317 231.240,398.317 229.600 C 398.317 228.789,398.409 228.125,398.522 228.125 C 398.634 228.125,398.746 227.455,398.771 226.637 C 398.795 225.818,398.899 225.034,399.000 224.894 C 399.102 224.754,399.216 223.882,399.253 222.957 C 399.290 222.031,399.432 220.787,399.568 220.192 C 399.916 218.673,400.094 186.516,399.774 182.933 C 399.639 181.412,399.469 179.519,399.397 178.726 C 399.325 177.933,399.230 176.783,399.185 176.171 C 399.140 175.560,399.038 174.953,398.958 174.824 C 398.878 174.694,398.793 173.978,398.768 173.232 C 398.744 172.486,398.644 171.875,398.546 171.875 C 398.448 171.875,398.307 171.037,398.233 170.012 C 398.071 167.780,397.753 165.726,397.442 164.904 C 397.318 164.573,397.238 163.951,397.265 163.522 C 397.292 163.092,397.226 162.740,397.118 162.740 C 397.010 162.740,396.865 162.227,396.797 161.599 C 396.634 160.103,396.286 158.340,396.090 158.023 C 396.004 157.885,395.911 157.348,395.883 156.830 C 395.855 156.313,395.758 155.781,395.668 155.649 C 395.445 155.322,394.833 152.357,394.910 151.983 C 394.945 151.818,394.878 151.683,394.762 151.683 C 394.646 151.683,394.536 151.547,394.518 151.382 C 394.469 150.934,394.275 149.991,394.024 148.978 C 393.901 148.483,393.857 148.077,393.925 148.077 C 393.993 148.077,393.943 147.942,393.813 147.776 C 393.684 147.611,393.340 146.556,393.050 145.433 C 392.760 144.309,392.431 143.119,392.318 142.788 C 391.975 141.786,391.840 141.347,391.836 141.222 C 391.834 141.157,391.669 140.712,391.469 140.234 C 391.269 139.756,391.106 139.161,391.106 138.913 C 391.106 138.665,391.021 138.462,390.918 138.462 C 390.814 138.462,390.707 138.164,390.680 137.800 C 390.634 137.191,390.426 136.601,389.876 135.520 C 389.759 135.291,389.663 134.885,389.663 134.619 C 389.663 134.352,389.555 134.135,389.423 134.135 C 389.291 134.135,389.183 133.923,389.183 133.665 C 389.183 133.407,389.061 132.893,388.912 132.523 C 388.764 132.154,388.533 131.581,388.399 131.250 C 387.931 130.090,387.448 128.819,387.371 128.546 C 387.343 128.447,387.294 128.284,387.262 128.185 C 387.230 128.086,387.183 127.897,387.158 127.764 C 387.102 127.474,386.919 127.037,385.999 125.000 C 385.610 124.141,385.265 123.329,385.232 123.197 C 384.940 122.042,384.773 121.635,384.589 121.635 C 384.471 121.635,384.375 121.425,384.375 121.168 C 384.375 120.911,384.267 120.635,384.135 120.553 C 384.002 120.471,383.894 120.219,383.894 119.992 C 383.894 119.765,383.573 118.933,383.181 118.143 C 382.788 117.353,382.464 116.572,382.459 116.406 C 382.455 116.241,382.344 116.106,382.212 116.106 C 382.079 116.106,381.971 115.889,381.971 115.625 C 381.971 115.361,381.863 115.144,381.731 115.144 C 381.599 115.144,381.490 114.928,381.490 114.663 C 381.490 114.399,381.382 114.183,381.250 114.183 C 381.118 114.183,381.010 114.019,381.010 113.819 C 381.010 113.390,379.366 109.908,379.080 109.731 C 378.972 109.665,378.812 109.287,378.725 108.891 C 378.639 108.496,378.468 108.173,378.346 108.173 C 378.225 108.173,378.125 107.957,378.125 107.692 C 378.125 107.428,378.017 107.212,377.885 107.212 C 377.752 107.212,377.644 107.012,377.644 106.768 C 377.644 106.524,377.428 106.129,377.163 105.889 C 376.899 105.650,376.683 105.264,376.683 105.031 C 376.683 104.798,376.598 104.571,376.494 104.527 C 376.390 104.483,375.976 103.798,375.573 103.005 C 374.739 101.362,374.213 100.415,374.038 100.240 C 373.846 100.048,373.339 99.210,373.020 98.558 C 372.858 98.227,372.670 97.903,372.601 97.837 C 372.532 97.770,372.316 97.392,372.121 96.995 C 371.926 96.599,371.299 95.591,370.727 94.755 C 370.155 93.920,369.591 93.001,369.474 92.712 C 369.171 91.968,367.793 89.976,367.780 90.264 C 367.774 90.397,367.614 90.180,367.423 89.784 C 366.971 88.843,366.586 88.281,365.935 87.609 C 365.643 87.307,365.334 86.781,365.248 86.439 C 365.162 86.097,365.019 85.817,364.930 85.817 C 364.840 85.817,364.575 85.493,364.341 85.096 C 364.076 84.647,363.716 84.374,363.388 84.371 C 363.077 84.369,362.972 84.295,363.131 84.191 C 363.459 83.977,363.194 83.168,362.647 82.715 C 362.434 82.538,362.259 82.271,362.259 82.122 C 362.258 81.973,361.933 81.505,361.537 81.083 C 361.141 80.660,360.817 80.206,360.817 80.073 C 360.817 79.940,360.628 79.721,360.397 79.587 C 360.165 79.452,360.062 79.338,360.167 79.334 C 360.272 79.330,360.110 79.070,359.807 78.756 C 358.938 77.857,358.413 77.176,358.413 76.946 C 358.413 76.829,358.250 76.671,358.051 76.595 C 357.851 76.518,357.716 76.349,357.750 76.218 C 357.784 76.088,357.425 75.571,356.952 75.070 C 356.478 74.569,355.513 73.401,354.806 72.476 C 354.099 71.550,353.296 70.570,353.022 70.298 C 352.748 70.026,351.929 69.117,351.202 68.279 C 350.475 67.441,349.636 66.516,349.339 66.223 C 349.041 65.930,348.798 65.567,348.798 65.417 C 348.798 65.267,348.699 65.144,348.578 65.144 C 348.355 65.144,348.180 64.964,345.885 62.380 C 345.181 61.587,344.513 60.967,344.400 61.004 C 344.287 61.040,344.259 60.966,344.337 60.839 C 344.416 60.713,344.153 60.416,343.754 60.181 C 343.355 59.945,343.029 59.665,343.029 59.559 C 343.029 59.284,335.731 52.163,335.450 52.163 C 335.422 52.163,334.920 51.704,334.334 51.142 C 332.338 49.229,329.275 46.515,329.000 46.417 C 328.849 46.363,328.537 46.103,328.305 45.839 C 328.074 45.575,327.885 45.422,327.885 45.498 C 327.885 45.648,327.299 45.161,325.565 43.570 C 324.953 43.008,324.352 42.548,324.228 42.548 C 324.105 42.548,323.861 42.413,323.686 42.248 C 323.511 42.082,323.023 41.677,322.601 41.346 C 322.179 41.016,321.444 40.394,320.966 39.964 C 320.489 39.534,319.966 39.183,319.805 39.183 C 319.643 39.183,319.475 39.102,319.430 39.002 C 319.386 38.903,319.035 38.552,318.650 38.221 C 318.266 37.891,318.031 37.782,318.129 37.981 C 318.226 38.179,318.081 38.086,317.807 37.774 C 317.532 37.462,317.304 37.299,317.300 37.413 C 317.296 37.527,317.178 37.422,317.037 37.179 C 316.854 36.865,316.615 36.780,316.203 36.883 C 315.860 36.969,315.625 36.923,315.625 36.769 C 315.625 36.627,315.733 36.577,315.865 36.659 C 315.998 36.740,316.106 36.693,316.106 36.553 C 316.106 36.413,316.025 36.298,315.925 36.297 C 315.826 36.296,315.175 35.864,314.478 35.336 C 313.782 34.807,313.048 34.375,312.848 34.375 C 312.648 34.375,312.421 34.209,312.343 34.006 C 312.265 33.802,311.868 33.464,311.461 33.253 C 311.054 33.043,310.572 32.722,310.391 32.541 C 310.210 32.360,309.934 32.210,309.779 32.208 C 309.623 32.206,309.124 31.877,308.671 31.477 C 308.218 31.078,307.460 30.570,306.988 30.349 C 306.516 30.127,305.986 29.806,305.810 29.634 C 305.634 29.463,305.391 29.384,305.269 29.459 C 305.148 29.534,305.048 29.481,305.048 29.341 C 305.048 29.201,304.882 29.087,304.680 29.087 C 304.477 29.087,304.249 28.924,304.173 28.725 C 304.097 28.526,303.640 28.182,303.159 27.961 C 302.678 27.740,301.692 27.173,300.968 26.701 C 299.201 25.549,298.369 25.076,297.296 24.615 C 296.800 24.401,296.394 24.119,296.394 23.987 C 296.394 23.855,296.228 23.810,296.025 23.888 C 295.814 23.969,295.596 23.877,295.518 23.674 C 295.443 23.478,295.190 23.317,294.956 23.317 C 294.722 23.317,294.386 23.144,294.210 22.932 C 293.913 22.574,292.712 21.985,292.633 22.159 C 292.614 22.201,292.392 22.049,292.140 21.821 C 291.888 21.592,291.449 21.370,291.164 21.327 C 290.879 21.283,290.444 21.064,290.196 20.840 C 289.948 20.616,289.592 20.430,289.404 20.427 C 289.216 20.424,288.792 20.210,288.462 19.952 C 288.131 19.693,287.698 19.477,287.500 19.471 C 287.302 19.465,286.869 19.249,286.538 18.990 C 286.208 18.732,285.694 18.518,285.397 18.515 C 285.099 18.512,284.856 18.401,284.856 18.269 C 284.856 18.137,284.639 18.029,284.375 18.029 C 284.111 18.029,283.894 17.921,283.894 17.788 C 283.894 17.656,283.742 17.548,283.556 17.548 C 283.371 17.548,282.749 17.316,282.174 17.033 C 281.600 16.750,280.859 16.413,280.529 16.284 C 280.198 16.155,279.740 15.954,279.510 15.837 C 279.281 15.721,278.929 15.625,278.729 15.625 C 278.529 15.625,278.365 15.517,278.365 15.385 C 278.365 15.252,278.155 15.144,277.899 15.144 C 277.642 15.144,277.365 15.036,277.284 14.904 C 277.202 14.772,276.984 14.663,276.799 14.663 C 276.615 14.663,275.729 14.327,274.831 13.916 C 272.671 12.928,272.403 12.822,271.274 12.500 C 270.303 12.223,269.458 11.899,268.693 11.510 C 268.464 11.394,268.058 11.298,267.792 11.298 C 267.526 11.298,267.308 11.203,267.308 11.088 C 267.308 10.893,266.300 10.569,265.329 10.453 C 265.100 10.425,264.748 10.266,264.548 10.100 C 264.347 9.933,264.183 9.877,264.183 9.974 C 264.183 10.072,263.928 9.985,263.617 9.781 C 263.305 9.577,262.737 9.365,262.355 9.311 C 261.972 9.257,261.334 9.077,260.938 8.912 C 260.541 8.747,259.862 8.552,259.429 8.480 C 258.996 8.408,258.584 8.255,258.514 8.141 C 258.443 8.026,258.121 7.933,257.798 7.933 C 257.476 7.933,257.212 7.825,257.212 7.692 C 257.212 7.560,256.901 7.452,256.521 7.452 C 256.141 7.452,255.382 7.294,254.835 7.101 C 254.287 6.908,253.814 6.752,253.783 6.756 C 253.713 6.763,253.034 6.546,252.464 6.334 C 252.233 6.248,251.827 6.141,251.563 6.095 C 251.298 6.050,250.811 5.940,250.481 5.851 C 250.150 5.763,249.802 5.707,249.708 5.727 C 249.613 5.747,249.235 5.637,248.867 5.482 C 248.498 5.328,248.035 5.180,247.837 5.154 C 247.454 5.105,246.498 4.918,245.313 4.660 C 244.916 4.573,244.483 4.428,244.351 4.336 C 244.219 4.244,243.690 4.146,243.175 4.118 C 242.660 4.090,242.045 3.963,241.809 3.836 C 241.572 3.710,240.992 3.606,240.521 3.606 C 240.049 3.606,239.663 3.511,239.663 3.396 C 239.663 3.198,238.279 2.946,236.231 2.771 C 235.731 2.728,235.028 2.611,234.668 2.511 C 233.884 2.292,233.760 2.269,231.611 1.947 C 230.685 1.809,229.549 1.636,229.087 1.564 C 228.624 1.492,227.813 1.380,227.284 1.316 C 226.755 1.252,225.673 1.092,224.880 0.960 C 224.087 0.828,222.708 0.694,221.815 0.661 C 220.923 0.628,220.193 0.520,220.193 0.421 C 220.193 0.322,220.078 0.240,219.938 0.240 C 219.798 0.240,219.764 0.376,219.864 0.541 C 219.967 0.713,219.855 0.688,219.601 0.481 C 219.172 0.133,188.130 -0.128,182.463 0.169 M278.906 143.208 C 279.931 143.253,281.608 143.253,282.632 143.208 C 283.657 143.162,282.819 143.126,280.769 143.126 C 278.720 143.126,277.882 143.162,278.906 143.208 M325.319 169.832 C 325.320 170.757,325.364 171.106,325.416 170.608 C 325.468 170.109,325.467 169.352,325.414 168.925 C 325.361 168.498,325.318 168.906,325.319 169.832 M118.329 226.380 C 119.222 226.426,120.682 226.426,121.575 226.380 C 122.467 226.334,121.737 226.296,119.952 226.296 C 118.167 226.296,117.437 226.334,118.329 226.380 M278.175 226.380 C 279.061 226.426,280.576 226.426,281.540 226.381 C 282.504 226.335,281.779 226.297,279.928 226.297 C 278.077 226.296,277.288 226.334,278.175 226.380 M187.981 310.070 C 187.981 310.365,187.304 310.602,187.154 310.360 C 187.087 310.252,187.101 310.094,187.186 310.009 C 187.415 309.780,187.981 309.824,187.981 310.070 M200.546 320.733 C 200.699 321.173,200.477 321.635,200.112 321.635 C 199.680 321.635,199.001 320.927,199.171 320.654 C 199.374 320.325,200.424 320.386,200.546 320.733 " stroke="none" fill="#0aafb5" fill-rule="evenodd"></path><path id="path1" d="M85.194 35.374 L 84.736 35.892 85.397 35.466 C 86.078 35.028,86.207 34.856,85.855 34.856 C 85.743 34.856,85.445 35.089,85.194 35.374 M313.942 34.948 C 313.942 34.999,314.240 35.232,314.603 35.466 L 315.264 35.892 314.806 35.374 C 314.401 34.915,313.942 34.689,313.942 34.948 M169.824 82.788 C 166.824 84.095,166.349 87.871,168.934 89.861 C 170.754 91.263,179.567 99.969,179.567 100.366 C 179.567 100.530,178.846 101.281,177.964 102.034 C 174.185 105.259,170.333 110.790,169.000 114.904 C 168.721 115.763,168.400 116.683,168.287 116.947 C 166.330 121.524,166.592 130.505,168.884 137.432 C 169.627 139.676,172.999 145.372,174.249 146.492 C 174.929 147.102,174.912 147.221,173.798 149.610 C 172.641 152.092,171.681 154.884,171.479 156.355 C 171.398 156.948,171.135 157.612,170.895 157.829 C 170.451 158.231,171.500 159.630,172.229 159.608 C 172.365 159.604,172.287 159.491,172.055 159.356 C 171.095 158.796,172.232 153.866,174.298 149.631 C 175.487 147.193,175.522 147.446,173.673 144.991 C 165.767 134.488,165.317 120.284,172.532 109.014 C 176.184 103.312,182.430 98.335,188.462 96.324 C 189.996 95.812,189.928 95.439,188.006 93.821 C 185.287 91.532,183.064 90.342,179.093 89.049 C 175.961 88.029,175.163 88.018,174.100 88.979 C 171.386 91.430,167.788 90.028,167.788 86.519 C 167.788 83.088,171.568 81.894,174.175 84.502 C 175.265 85.591,175.655 85.819,176.848 86.064 C 182.488 87.222,187.245 89.762,191.587 93.933 L 192.909 95.203 194.471 95.017 C 196.485 94.778,201.901 94.778,203.606 95.017 L 204.928 95.203 206.674 93.543 C 210.733 89.683,215.638 87.147,221.373 85.943 C 222.384 85.731,222.997 85.467,223.155 85.178 C 225.475 80.930,231.819 83.746,229.824 88.138 C 228.672 90.677,225.878 91.013,223.632 88.882 C 222.696 87.995,221.683 88.056,218.191 89.214 C 212.860 90.981,205.815 96.154,208.739 96.154 C 209.177 96.154,211.538 97.156,213.462 98.158 C 230.968 107.281,235.933 129.757,223.929 145.548 C 222.603 147.293,222.600 147.386,223.775 149.859 C 225.578 153.655,226.951 159.478,226.218 160.225 C 226.011 160.437,226.561 160.175,227.440 159.644 C 228.907 158.757,240.652 152.885,240.958 152.885 C 241.032 152.885,241.663 152.624,242.361 152.305 C 247.780 149.828,257.157 146.637,263.221 145.207 C 270.329 143.530,273.559 143.173,281.550 143.178 C 285.352 143.181,288.462 143.094,288.462 142.986 C 288.462 142.877,288.372 142.788,288.263 142.788 C 287.953 142.788,230.545 85.273,230.008 84.425 C 228.350 81.805,224.699 81.935,222.960 84.675 C 222.700 85.085,222.329 85.337,221.985 85.337 C 218.340 85.337,210.689 89.163,206.270 93.197 L 204.523 94.791 202.923 94.465 C 201.188 94.112,196.899 94.095,194.605 94.433 L 193.176 94.644 192.081 93.645 C 187.112 89.114,182.543 86.718,176.459 85.451 C 175.938 85.343,175.319 84.927,174.776 84.322 C 173.244 82.612,171.482 82.066,169.824 82.788 M321.590 157.452 C 321.665 157.650,322.027 158.288,322.394 158.868 C 328.490 168.523,325.165 181.733,314.904 188.631 C 309.218 192.454,303.272 194.451,292.849 196.040 C 291.715 196.213,291.595 196.477,292.306 197.233 C 292.569 197.514,293.476 198.895,294.322 200.303 C 305.847 219.493,292.883 231.014,266.914 224.662 C 265.328 224.274,261.571 223.172,260.753 222.855 C 260.458 222.740,259.730 222.508,259.135 222.339 C 258.540 222.170,257.950 221.942,257.825 221.833 C 257.699 221.724,257.454 221.635,257.281 221.635 C 257.108 221.635,256.507 221.433,255.947 221.186 C 255.386 220.939,253.846 220.266,252.524 219.690 C 251.202 219.114,249.011 218.070,247.656 217.371 L 245.192 216.099 245.192 217.136 C 245.192 217.707,245.306 218.287,245.446 218.427 C 246.734 219.715,246.899 240.497,245.640 242.851 C 245.493 243.124,245.324 244.166,245.263 245.166 C 245.203 246.166,244.991 247.366,244.794 247.831 C 244.596 248.297,244.334 249.289,244.211 250.035 C 244.088 250.781,243.827 251.701,243.630 252.078 C 243.433 252.456,243.272 253.000,243.271 253.288 C 243.270 253.576,242.938 254.712,242.533 255.812 C 242.129 256.912,241.640 258.299,241.448 258.894 C 241.255 259.489,240.937 260.317,240.741 260.733 C 240.545 261.150,240.385 261.603,240.385 261.741 C 240.385 261.878,239.965 262.890,239.452 263.988 C 238.939 265.087,238.448 266.219,238.361 266.505 C 238.274 266.790,238.044 267.155,237.851 267.315 C 237.658 267.476,237.500 267.803,237.500 268.043 C 237.500 268.284,237.191 269.055,236.814 269.757 C 236.436 270.459,235.555 272.115,234.855 273.438 C 231.616 279.559,223.495 291.708,221.978 292.702 C 221.667 292.905,221.340 293.306,221.250 293.591 C 221.090 294.102,217.991 297.968,216.185 299.908 C 215.679 300.453,214.886 301.372,214.423 301.952 C 213.313 303.342,208.812 308.028,206.261 310.450 C 205.142 311.511,203.837 312.774,203.360 313.255 C 199.407 317.241,198.986 317.319,196.027 314.615 C 193.134 311.970,185.890 304.684,183.654 302.169 C 182.662 301.053,181.462 299.703,180.987 299.169 C 179.499 297.494,176.683 293.967,176.683 293.778 C 176.683 293.678,176.297 293.172,175.825 292.652 C 174.335 291.010,171.051 286.537,168.866 283.173 C 166.314 279.244,164.423 276.208,164.423 276.040 C 164.423 275.971,164.221 275.628,163.973 275.277 C 163.354 274.398,160.413 268.789,159.858 267.428 C 159.697 267.031,159.360 266.247,159.109 265.685 C 158.859 265.123,158.452 264.204,158.206 263.642 C 157.959 263.080,157.591 262.242,157.388 261.779 C 156.976 260.842,156.373 259.093,155.897 257.452 C 155.724 256.857,155.421 255.992,155.223 255.529 C 154.881 254.729,154.759 254.315,153.947 251.202 C 153.757 250.475,153.476 249.501,153.323 249.038 C 153.169 248.576,152.897 247.332,152.718 246.274 C 152.539 245.216,152.343 244.081,152.282 243.750 C 151.678 240.460,151.214 235.000,151.220 231.250 C 151.229 226.196,151.923 218.566,152.401 218.271 C 153.434 217.632,152.255 217.364,151.117 217.978 C 150.050 218.554,146.200 220.287,144.531 220.942 C 144.234 221.058,143.747 221.251,143.450 221.371 C 128.974 227.177,111.679 228.005,106.533 223.137 C 106.359 222.972,106.034 222.840,105.812 222.845 C 105.499 222.851,105.543 222.957,106.010 223.320 C 108.155 224.988,103.230 220.111,141.365 258.327 C 170.719 287.743,175.481 292.648,175.481 293.474 C 175.481 293.617,175.941 294.266,176.502 294.915 C 177.064 295.565,177.903 296.563,178.365 297.132 C 182.694 302.459,196.362 316.431,198.591 317.809 C 199.674 318.478,268.763 387.904,268.677 388.236 C 268.575 388.624,269.889 388.364,270.348 387.905 C 270.439 387.815,270.711 387.740,270.954 387.740 C 271.196 387.740,271.394 387.632,271.394 387.500 C 271.394 387.368,271.612 387.260,271.878 387.260 C 272.144 387.260,272.550 387.164,272.780 387.047 C 273.009 386.930,273.522 386.702,273.918 386.538 C 274.315 386.375,274.827 386.146,275.057 386.030 C 275.286 385.913,275.638 385.817,275.838 385.817 C 276.038 385.817,276.202 385.729,276.202 385.620 C 276.202 385.512,276.743 385.276,277.404 385.096 C 278.065 384.916,278.606 384.680,278.606 384.572 C 278.606 384.464,278.769 384.375,278.970 384.375 C 279.170 384.375,279.521 384.280,279.751 384.165 C 281.574 383.246,282.312 382.932,282.655 382.927 C 282.874 382.924,283.323 382.710,283.654 382.452 C 283.984 382.193,284.368 381.979,284.506 381.976 C 284.778 381.971,293.494 377.608,295.072 376.688 C 295.601 376.380,296.575 375.837,297.236 375.481 C 298.991 374.536,300.279 373.796,300.962 373.341 C 301.292 373.120,301.887 372.781,302.284 372.588 C 302.680 372.395,303.059 372.181,303.125 372.113 C 303.191 372.044,303.759 371.730,304.387 371.413 C 305.015 371.097,305.529 370.747,305.529 370.635 C 305.529 370.524,305.639 370.433,305.774 370.433 C 306.080 370.433,315.476 364.181,315.585 363.905 C 315.629 363.793,315.791 363.702,315.946 363.701 C 316.100 363.701,316.605 363.377,317.067 362.981 C 317.530 362.585,318.004 362.260,318.121 362.260 C 318.238 362.260,318.508 362.065,318.722 361.828 C 318.936 361.590,319.489 361.134,319.952 360.814 C 320.415 360.494,321.118 359.931,321.514 359.564 C 321.911 359.197,322.347 358.896,322.483 358.895 C 322.619 358.895,322.886 358.678,323.077 358.413 C 323.268 358.149,323.535 357.932,323.671 357.932 C 323.807 357.931,324.243 357.633,324.639 357.271 C 325.036 356.908,325.757 356.315,326.241 355.953 C 326.726 355.592,327.266 355.158,327.443 354.991 C 327.620 354.823,328.355 354.199,329.077 353.605 C 329.799 353.010,330.665 352.246,331.000 351.907 C 331.336 351.567,331.851 351.127,332.144 350.928 C 334.432 349.376,349.302 334.515,350.920 332.163 C 351.129 331.859,351.576 331.340,351.914 331.010 C 352.252 330.679,353.013 329.814,353.605 329.087 C 354.197 328.359,355.087 327.332,355.583 326.803 C 356.079 326.274,356.486 325.715,356.488 325.561 C 356.489 325.407,356.576 325.244,356.680 325.200 C 356.784 325.156,357.243 324.633,357.701 324.038 C 358.159 323.444,358.593 322.903,358.665 322.837 C 358.738 322.770,359.057 322.338,359.375 321.875 C 359.693 321.412,360.017 320.980,360.096 320.913 C 360.175 320.847,360.501 320.415,360.821 319.952 C 361.141 319.489,361.703 318.786,362.071 318.389 C 362.438 317.993,362.739 317.533,362.739 317.368 C 362.740 317.203,362.830 317.067,362.940 317.067 C 363.050 317.067,363.293 316.770,363.481 316.406 C 363.668 316.043,363.884 315.691,363.960 315.625 C 364.036 315.559,364.570 314.802,365.146 313.942 C 365.721 313.083,366.281 312.344,366.390 312.300 C 366.498 312.256,366.587 312.117,366.587 311.992 C 366.587 311.867,367.452 310.473,368.510 308.894 C 369.567 307.315,370.433 305.912,370.433 305.776 C 370.433 305.640,370.528 305.529,370.645 305.529 C 370.762 305.529,370.917 305.340,370.991 305.108 C 371.122 304.696,371.878 303.362,372.116 303.125 C 372.182 303.059,372.395 302.680,372.588 302.284 C 372.781 301.887,373.120 301.292,373.341 300.962 C 373.763 300.329,374.355 299.301,375.558 297.115 C 375.958 296.388,376.532 295.361,376.833 294.832 C 377.431 293.784,382.381 283.833,382.693 283.053 C 382.799 282.788,383.221 281.849,383.630 280.965 C 384.040 280.081,384.375 279.188,384.375 278.981 C 384.375 278.775,384.483 278.606,384.615 278.606 C 384.748 278.606,384.856 278.396,384.856 278.139 C 384.856 277.883,384.964 277.606,385.096 277.524 C 385.228 277.442,385.337 277.111,385.337 276.789 C 385.337 276.466,385.445 276.202,385.577 276.202 C 385.709 276.202,385.817 276.038,385.817 275.838 C 385.817 275.638,385.913 275.286,386.030 275.057 C 386.146 274.827,386.375 274.315,386.538 273.918 C 386.702 273.522,386.930 273.009,387.047 272.780 C 387.164 272.550,387.260 272.199,387.260 271.998 C 387.260 271.798,387.368 271.635,387.500 271.635 C 387.632 271.635,387.740 271.371,387.740 271.048 C 387.740 270.725,387.849 270.394,387.981 270.313 C 388.113 270.231,388.221 269.906,388.221 269.591 C 388.221 269.276,388.329 268.952,388.462 268.870 C 388.594 268.788,388.702 268.524,388.702 268.283 C 388.702 268.041,388.865 267.534,389.065 267.155 C 389.264 266.776,389.494 266.061,389.576 265.565 C 389.658 265.069,389.819 264.663,389.935 264.663 C 390.050 264.663,390.144 264.399,390.144 264.077 C 390.144 263.754,390.252 263.423,390.385 263.341 C 390.517 263.260,390.625 262.929,390.625 262.606 C 390.625 262.283,390.733 262.019,390.865 262.019 C 390.998 262.019,391.106 261.701,391.106 261.312 C 391.106 260.923,391.214 260.538,391.346 260.457 C 391.478 260.375,391.587 260.044,391.587 259.721 C 391.587 259.399,391.672 259.135,391.776 259.135 C 391.880 259.135,391.991 258.790,392.023 258.369 C 392.055 257.948,392.168 257.489,392.275 257.348 C 392.381 257.207,392.611 256.442,392.787 255.649 C 392.963 254.856,393.197 254.104,393.308 253.978 C 393.419 253.853,393.510 253.453,393.510 253.091 C 393.510 252.729,393.618 252.365,393.750 252.284 C 393.882 252.202,393.990 251.769,393.990 251.322 C 393.990 250.875,394.099 250.442,394.231 250.361 C 394.363 250.279,394.471 249.916,394.471 249.553 C 394.471 249.191,394.568 248.791,394.687 248.666 C 394.806 248.540,394.962 248.005,395.034 247.476 C 395.260 245.816,395.458 244.848,395.673 244.351 C 395.787 244.087,395.946 243.492,396.026 243.029 C 396.195 242.056,396.501 240.536,396.874 238.822 C 397.018 238.161,397.196 237.025,397.269 236.298 C 397.343 235.571,397.501 234.873,397.620 234.748 C 397.952 234.398,397.884 232.933,397.536 232.932 C 397.371 232.932,380.184 215.867,359.344 195.011 C 338.504 174.155,321.514 157.254,321.590 157.452 M174.279 160.685 C 174.279 160.751,174.603 160.973,175.000 161.178 C 175.397 161.383,175.721 161.497,175.721 161.431 C 175.721 161.365,175.397 161.143,175.000 160.938 C 174.603 160.732,174.279 160.619,174.279 160.685 M224.940 160.955 C 224.041 161.442,224.096 161.645,225.000 161.178 C 225.397 160.973,225.721 160.754,225.721 160.691 C 225.721 160.536,225.695 160.545,224.940 160.955 M175.962 161.646 C 175.962 161.712,176.286 161.934,176.683 162.139 C 177.079 162.345,177.404 162.458,177.404 162.392 C 177.404 162.326,177.079 162.104,176.683 161.899 C 176.286 161.694,175.962 161.580,175.962 161.646 M223.257 161.916 C 222.359 162.404,222.413 162.607,223.317 162.139 C 223.714 161.934,224.038 161.715,224.038 161.652 C 224.038 161.498,224.013 161.507,223.257 161.916 M177.644 162.608 C 177.644 162.674,177.969 162.896,178.365 163.101 C 178.762 163.306,179.087 163.420,179.087 163.354 C 179.087 163.288,178.762 163.066,178.365 162.861 C 177.969 162.655,177.644 162.542,177.644 162.608 M180.168 164.117 C 180.300 164.243,180.841 164.589,181.370 164.886 C 181.899 165.183,182.115 165.246,181.851 165.026 C 181.314 164.580,179.791 163.757,180.168 164.117 M219.171 164.320 C 218.272 164.808,218.327 165.011,219.231 164.543 C 219.627 164.338,219.952 164.119,219.952 164.056 C 219.952 163.902,219.926 163.910,219.171 164.320 M185.096 167.128 C 185.096 167.233,185.580 167.572,187.560 168.857 C 187.924 169.093,188.221 169.234,188.221 169.170 C 188.221 169.065,187.737 168.726,185.757 167.441 C 185.394 167.205,185.096 167.064,185.096 167.128 M214.002 167.576 C 213.183 168.100,212.918 168.453,213.642 168.055 C 214.193 167.752,215.057 167.084,214.904 167.079 C 214.838 167.077,214.432 167.301,214.002 167.576 M188.582 170.913 C 188.491 171.198,188.472 171.485,188.538 171.551 C 188.604 171.617,188.732 171.438,188.822 171.154 C 188.912 170.869,188.932 170.583,188.866 170.517 C 188.800 170.451,188.672 170.629,188.582 170.913 M211.065 170.673 C 211.065 170.871,211.170 171.196,211.298 171.394 C 211.505 171.715,211.531 171.715,211.531 171.394 C 211.531 171.196,211.426 170.871,211.298 170.673 C 211.091 170.353,211.065 170.353,211.065 170.673 M187.912 173.128 C 187.693 173.813,187.554 174.413,187.603 174.462 C 187.652 174.510,187.876 173.995,188.101 173.317 C 188.326 172.639,188.465 172.039,188.410 171.984 C 188.355 171.929,188.131 172.444,187.912 173.128 M211.557 171.994 C 211.530 172.347,212.774 176.008,212.883 175.899 C 212.934 175.848,212.661 174.894,212.275 173.780 C 211.890 172.666,211.567 171.863,211.557 171.994 M186.072 178.183 C 185.031 180.819,184.975 180.994,185.313 180.529 C 185.667 180.042,187.070 176.413,186.951 176.294 C 186.898 176.241,186.503 177.092,186.072 178.183 M213.469 177.644 C 213.469 177.843,213.574 178.167,213.702 178.365 C 213.909 178.686,213.935 178.686,213.935 178.365 C 213.935 178.167,213.830 177.843,213.702 177.644 C 213.495 177.324,213.469 177.324,213.469 177.644 M184.528 181.884 C 184.300 182.361,184.166 182.804,184.230 182.868 C 184.294 182.932,184.517 182.578,184.725 182.080 C 185.215 180.907,185.065 180.757,184.528 181.884 M214.914 181.040 C 214.892 181.358,215.659 182.979,215.777 182.861 C 215.845 182.793,215.681 182.322,215.413 181.814 C 215.144 181.305,214.920 180.957,214.914 181.040 M216.346 184.219 C 216.346 184.497,218.926 189.513,219.332 190.024 C 219.542 190.288,218.993 189.099,218.111 187.380 C 216.436 184.113,216.346 183.952,216.346 184.219 M182.185 186.839 C 181.771 187.665,181.164 188.828,180.838 189.423 C 180.512 190.018,180.426 190.288,180.647 190.024 C 181.111 189.470,183.238 185.337,183.059 185.337 C 182.993 185.337,182.600 186.013,182.185 186.839 M83.654 188.249 C 83.984 188.520,84.688 189.104,85.216 189.546 C 88.072 191.934,101.923 206.149,101.923 206.691 C 101.923 206.977,102.017 206.961,102.404 206.611 C 102.668 206.371,102.885 206.045,102.885 205.887 C 102.885 205.177,105.840 199.750,107.286 197.804 C 108.481 196.196,108.595 196.296,104.868 195.695 C 101.357 195.130,101.203 195.097,97.476 194.097 C 94.851 193.393,94.161 193.153,91.106 191.886 C 88.746 190.907,87.797 190.403,85.415 188.858 C 83.672 187.729,82.542 187.338,83.654 188.249 M179.481 191.712 C 179.147 192.311,178.977 192.736,179.104 192.658 C 179.356 192.502,180.362 190.625,180.194 190.625 C 180.136 190.625,179.816 191.114,179.481 191.712 M220.072 191.346 C 220.277 191.743,220.499 192.067,220.565 192.067 C 220.631 192.067,220.518 191.743,220.313 191.346 C 220.107 190.950,219.885 190.625,219.819 190.625 C 219.753 190.625,219.867 190.950,220.072 191.346 M56.010 339.739 C 56.010 339.780,56.361 340.132,56.791 340.520 L 57.572 341.226 56.866 340.445 C 56.208 339.716,56.010 339.553,56.010 339.739 M85.270 364.681 C 85.564 364.987,85.864 365.177,85.938 365.103 C 86.012 365.029,85.772 364.779,85.404 364.547 L 84.736 364.125 85.270 364.681 " stroke="none" fill="#088c91" fill-rule="evenodd"></path><path id="path2" d="M110.457 143.510 L 109.255 143.674 110.697 143.681 C 111.490 143.684,112.951 143.611,113.942 143.517 L 115.745 143.347 113.702 143.346 C 112.578 143.345,111.118 143.419,110.457 143.510 M123.798 143.518 C 124.657 143.615,125.901 143.693,126.563 143.692 L 127.764 143.690 126.683 143.497 C 126.088 143.391,124.844 143.313,123.918 143.324 L 122.236 143.343 123.798 143.518 M273.558 143.518 C 272.963 143.615,273.990 143.638,275.841 143.570 C 277.692 143.501,279.252 143.406,279.307 143.357 C 279.484 143.201,274.676 143.335,273.558 143.518 M281.510 143.359 C 281.566 143.408,283.612 143.505,286.058 143.573 C 288.683 143.646,289.816 143.621,288.822 143.513 C 287.076 143.322,281.334 143.201,281.510 143.359 M106.250 143.990 C 104.995 144.254,106.458 144.265,107.933 144.003 L 109.014 143.810 108.053 143.812 C 107.524 143.813,106.713 143.893,106.250 143.990 M128.966 144.004 C 130.184 144.256,131.168 144.245,130.168 143.990 C 129.772 143.889,129.123 143.807,128.726 143.806 C 128.120 143.805,128.158 143.837,128.966 144.004 M268.763 144.138 C 267.778 144.316,266.859 144.510,266.720 144.568 C 266.139 144.810,267.590 144.666,269.952 144.247 C 271.356 143.998,272.049 143.803,271.514 143.807 C 270.986 143.810,269.747 143.960,268.763 144.138 M292.067 144.003 C 293.518 144.261,294.655 144.238,293.389 143.977 C 292.861 143.867,292.103 143.785,291.707 143.794 C 291.166 143.806,291.256 143.858,292.067 144.003 M103.125 144.471 C 102.284 144.740,103.629 144.740,104.688 144.471 L 105.409 144.288 104.567 144.283 C 104.105 144.281,103.456 144.365,103.125 144.471 M131.731 144.471 C 132.061 144.577,132.656 144.662,133.053 144.659 L 133.774 144.655 133.053 144.471 C 132.656 144.370,132.061 144.286,131.731 144.283 L 131.130 144.279 131.731 144.471 M295.313 144.471 C 296.371 144.740,297.716 144.740,296.875 144.471 C 296.544 144.365,295.895 144.281,295.433 144.283 L 294.591 144.288 295.313 144.471 M100.962 144.952 C 100.486 145.104,100.461 145.144,100.841 145.144 C 101.106 145.144,101.593 145.058,101.923 144.952 C 102.399 144.800,102.424 144.759,102.043 144.759 C 101.779 144.759,101.292 144.846,100.962 144.952 M134.375 144.952 C 134.706 145.058,135.192 145.144,135.457 145.144 C 135.837 145.144,135.812 145.104,135.337 144.952 C 135.006 144.846,134.519 144.759,134.255 144.759 C 133.874 144.759,133.899 144.800,134.375 144.952 M264.784 144.952 C 264.345 145.140,264.356 145.159,264.904 145.159 C 265.234 145.159,265.721 145.066,265.986 144.952 C 266.424 144.764,266.413 144.745,265.865 144.745 C 265.535 144.745,265.048 144.838,264.784 144.952 M298.077 144.952 C 298.407 145.058,298.894 145.144,299.159 145.144 C 299.539 145.144,299.514 145.104,299.038 144.952 C 298.708 144.846,298.221 144.759,297.957 144.759 C 297.576 144.759,297.601 144.800,298.077 144.952 M98.678 145.433 L 98.197 145.639 98.678 145.639 C 98.942 145.639,99.375 145.546,99.639 145.433 L 100.120 145.226 99.639 145.226 C 99.375 145.226,98.942 145.319,98.678 145.433 M136.538 145.433 C 137.465 145.729,137.959 145.729,137.500 145.433 C 137.302 145.305,136.869 145.209,136.538 145.220 L 135.938 145.240 136.538 145.433 M261.779 145.673 C 260.026 146.248,260.512 146.258,262.620 145.689 C 263.546 145.440,264.032 145.237,263.702 145.238 C 263.371 145.239,262.506 145.435,261.779 145.673 M300.240 145.433 C 300.571 145.539,301.058 145.628,301.322 145.632 L 301.803 145.639 301.322 145.433 C 301.058 145.319,300.571 145.229,300.240 145.233 L 299.639 145.240 300.240 145.433 M96.995 145.913 C 96.692 146.044,96.648 146.120,96.875 146.120 C 97.073 146.120,97.452 146.027,97.716 145.913 C 98.019 145.783,98.064 145.707,97.837 145.707 C 97.638 145.707,97.260 145.800,96.995 145.913 M302.284 145.913 C 302.548 146.027,302.927 146.120,303.125 146.120 C 303.352 146.120,303.308 146.044,303.005 145.913 C 302.740 145.800,302.362 145.707,302.163 145.707 C 301.936 145.707,301.981 145.783,302.284 145.913 M94.757 146.558 C 94.186 146.760,93.758 146.963,93.804 147.009 C 93.910 147.115,96.394 146.393,96.394 146.256 C 96.394 146.076,95.821 146.182,94.757 146.558 M141.226 146.653 C 142.019 146.904,142.776 147.102,142.909 147.093 C 143.336 147.066,140.762 146.191,140.264 146.194 C 140.000 146.196,140.433 146.403,141.226 146.653 M257.452 146.868 C 256.328 147.241,255.496 147.557,255.604 147.571 C 255.831 147.600,260.168 146.380,260.317 146.245 C 260.613 145.976,259.248 146.273,257.452 146.868 M303.606 146.256 C 303.606 146.392,306.089 147.116,306.194 147.011 C 306.282 146.923,304.135 146.154,303.803 146.154 C 303.695 146.154,303.606 146.200,303.606 146.256 M91.947 147.603 C 91.418 147.849,90.774 148.107,90.515 148.175 C 90.257 148.243,90.103 148.356,90.174 148.428 C 90.288 148.541,93.228 147.463,93.490 147.212 C 93.749 146.963,92.809 147.201,91.947 147.603 M143.630 147.356 C 143.894 147.469,144.273 147.562,144.471 147.562 C 144.698 147.562,144.654 147.486,144.351 147.356 C 144.087 147.242,143.708 147.149,143.510 147.149 C 143.282 147.149,143.327 147.226,143.630 147.356 M306.510 147.212 C 306.750 147.441,309.707 148.546,309.809 148.444 C 309.872 148.382,309.664 148.232,309.348 148.112 C 309.032 147.992,308.355 147.719,307.843 147.505 C 306.978 147.143,306.279 146.989,306.510 147.212 M253.653 148.014 C 253.084 148.210,252.671 148.424,252.736 148.489 C 252.863 148.616,255.288 147.864,255.288 147.697 C 255.288 147.531,254.748 147.636,253.653 148.014 M146.995 148.410 C 147.392 148.591,147.987 148.805,148.317 148.886 C 148.800 149.004,148.776 148.969,148.197 148.705 C 147.800 148.525,147.206 148.310,146.875 148.229 C 146.392 148.111,146.416 148.147,146.995 148.410 M250.841 149.038 C 250.313 149.283,250.042 149.484,250.240 149.484 C 250.439 149.484,251.034 149.283,251.563 149.038 C 252.091 148.794,252.362 148.593,252.163 148.593 C 251.965 148.593,251.370 148.794,250.841 149.038 M149.880 149.519 C 150.409 149.764,151.004 149.964,151.202 149.964 C 151.400 149.964,151.130 149.764,150.601 149.519 C 150.072 149.274,149.477 149.074,149.279 149.074 C 149.081 149.074,149.351 149.274,149.880 149.519 M87.200 149.897 C 86.836 150.094,86.538 150.306,86.538 150.368 C 86.538 150.600,86.918 150.455,87.500 150.000 C 88.214 149.441,88.107 149.405,87.200 149.897 M312.500 149.980 C 313.079 150.452,313.462 150.606,313.462 150.367 C 313.462 150.304,313.110 150.081,312.680 149.872 L 311.899 149.490 312.500 149.980 M246.635 150.609 C 245.907 150.920,244.997 151.290,244.612 151.430 C 244.227 151.570,243.965 151.738,244.030 151.802 C 244.134 151.907,248.291 150.334,248.538 150.097 C 248.808 149.835,247.815 150.103,246.635 150.609 M83.609 152.361 C 81.697 153.883,78.984 156.711,78.292 157.905 C 77.677 158.966,77.941 158.835,78.686 157.710 C 79.690 156.192,82.121 153.718,83.915 152.389 C 85.436 151.261,85.763 150.962,85.472 150.962 C 85.415 150.962,84.577 151.591,83.609 152.361 M314.486 151.110 C 314.562 151.232,315.139 151.702,315.768 152.154 C 316.397 152.605,316.833 152.848,316.737 152.693 C 316.641 152.537,316.064 152.067,315.455 151.649 C 314.847 151.230,314.411 150.988,314.486 151.110 M156.266 152.002 C 156.870 152.289,157.843 152.730,158.430 152.982 C 159.016 153.234,160.377 153.856,161.454 154.364 C 163.508 155.333,164.479 155.614,162.907 154.784 C 161.570 154.079,155.569 151.439,155.353 151.461 C 155.251 151.472,155.662 151.715,156.266 152.002 M242.788 152.226 C 242.458 152.374,241.376 152.865,240.385 153.316 C 239.393 153.766,238.323 154.235,238.008 154.358 C 237.692 154.481,237.490 154.637,237.559 154.707 C 237.665 154.812,239.635 153.962,243.149 152.296 C 243.997 151.894,243.669 151.830,242.788 152.226 M318.525 154.447 C 320.409 156.474,321.687 158.209,322.752 160.185 C 323.629 161.810,323.862 161.876,323.042 160.267 C 322.051 158.320,320.223 155.877,318.599 154.327 L 316.961 152.764 318.525 154.447 M232.091 157.293 C 229.447 158.655,226.337 160.329,225.180 161.014 C 224.023 161.699,222.130 162.814,220.974 163.492 C 219.051 164.620,214.235 167.633,212.312 168.911 C 211.878 169.200,211.396 169.479,211.241 169.530 C 210.878 169.651,212.872 175.971,214.294 179.207 C 214.468 179.603,214.962 180.739,215.390 181.731 C 216.899 185.223,219.269 189.717,221.728 193.750 C 222.010 194.213,222.456 194.952,222.719 195.393 C 225.372 199.839,231.881 206.987,236.363 210.376 C 237.451 211.199,238.395 211.941,238.462 212.026 C 238.528 212.111,239.123 212.494,239.784 212.877 C 240.445 213.260,241.526 213.931,242.188 214.369 C 243.539 215.263,251.337 219.159,253.365 219.953 C 254.093 220.237,255.012 220.612,255.409 220.786 C 267.294 225.986,282.218 227.672,290.024 224.698 C 300.117 220.852,301.269 210.652,292.995 198.388 C 291.671 196.425,291.613 196.209,292.368 196.048 C 294.265 195.643,294.063 195.652,287.861 196.251 C 279.195 197.087,269.697 196.276,261.298 193.981 C 249.390 190.726,238.076 185.951,225.000 178.658 C 219.601 175.647,211.284 170.390,211.310 170.005 C 211.316 169.910,212.587 169.025,214.134 168.039 C 216.636 166.444,219.021 165.001,226.202 160.739 C 227.326 160.072,230.246 158.505,232.692 157.256 C 235.138 156.007,237.184 154.945,237.240 154.897 C 237.718 154.472,236.174 155.191,232.091 157.293 M163.942 155.411 C 163.942 155.548,167.223 157.213,167.482 157.207 C 167.687 157.202,165.655 156.064,164.603 155.594 C 164.240 155.432,163.942 155.349,163.942 155.411 M167.788 157.321 C 167.788 157.375,168.465 157.787,169.291 158.237 C 170.117 158.686,171.496 159.464,172.356 159.966 C 173.215 160.469,174.513 161.210,175.240 161.614 C 179.165 163.793,188.670 169.713,188.690 169.991 C 188.727 170.485,178.367 176.905,172.356 180.114 C 160.478 186.454,151.274 190.351,141.346 193.242 C 129.693 196.637,118.350 197.460,107.332 195.711 C 106.538 195.585,105.294 195.421,104.567 195.346 L 103.245 195.210 104.447 195.458 C 105.108 195.594,106.217 195.814,106.911 195.947 C 108.473 196.245,108.476 196.203,106.765 198.747 C 93.363 218.680,106.619 231.250,133.774 224.359 C 137.063 223.525,142.239 221.815,144.591 220.786 C 144.988 220.612,145.853 220.256,146.514 219.995 C 147.175 219.734,148.690 219.064,149.880 218.508 C 151.070 217.951,152.155 217.478,152.291 217.456 C 152.428 217.433,152.873 217.177,153.282 216.887 C 153.690 216.596,154.288 216.258,154.612 216.135 C 155.309 215.869,161.365 212.271,161.538 212.019 C 161.605 211.923,162.416 211.282,163.341 210.594 C 172.746 203.611,181.348 191.022,186.841 176.202 C 188.365 172.091,189.068 169.633,188.751 169.528 C 188.592 169.475,187.678 168.921,186.719 168.297 C 182.344 165.450,172.610 159.615,172.236 159.615 C 172.197 159.615,171.477 159.206,170.638 158.705 C 169.064 157.767,167.788 157.147,167.788 157.321 M77.292 159.516 C 77.068 159.858,76.939 160.193,77.006 160.260 C 77.073 160.326,77.301 160.047,77.512 159.638 C 77.980 158.734,77.851 158.663,77.292 159.516 M76.365 161.429 C 76.143 161.895,75.969 162.407,75.979 162.568 C 75.988 162.729,76.206 162.385,76.464 161.804 C 77.026 160.539,76.941 160.221,76.365 161.429 M323.577 161.899 C 323.567 162.031,323.779 162.680,324.048 163.341 C 324.318 164.002,324.474 164.231,324.396 163.849 C 324.228 163.032,323.606 161.550,323.577 161.899 M75.383 164.262 C 75.172 164.986,75.011 165.833,75.025 166.143 C 75.039 166.453,75.246 165.895,75.486 164.904 C 75.998 162.782,75.932 162.371,75.383 164.262 M324.572 165.144 C 324.574 165.475,324.659 166.070,324.760 166.466 L 324.943 167.188 324.948 166.466 C 324.950 166.070,324.865 165.475,324.760 165.144 L 324.567 164.543 324.572 165.144 M74.852 169.952 C 74.852 171.605,74.891 172.281,74.938 171.454 C 74.985 170.628,74.985 169.276,74.938 168.450 C 74.891 167.623,74.852 168.299,74.852 169.952 M325.089 169.952 C 325.089 171.340,325.129 171.908,325.177 171.214 C 325.226 170.520,325.226 169.384,325.177 168.690 C 325.129 167.996,325.089 168.564,325.089 169.952 M324.676 173.678 C 324.399 175.416,323.818 177.350,323.167 178.708 C 322.855 179.358,322.651 179.943,322.715 180.007 C 323.109 180.401,325.094 174.298,324.950 173.133 C 324.889 172.641,324.820 172.779,324.676 173.678 M75.045 173.678 C 75.039 174.075,75.127 174.615,75.240 174.880 L 75.447 175.361 75.435 174.880 C 75.429 174.615,75.341 174.075,75.240 173.678 L 75.057 172.957 75.045 173.678 M75.515 175.721 C 75.515 175.919,75.608 176.298,75.721 176.563 C 75.851 176.866,75.928 176.910,75.928 176.683 C 75.928 176.484,75.835 176.106,75.721 175.841 C 75.591 175.538,75.515 175.494,75.515 175.721 M76.446 178.466 C 76.431 179.413,79.592 183.909,81.530 185.697 L 82.572 186.659 81.611 185.592 C 81.082 185.006,80.519 184.381,80.360 184.204 C 79.203 182.918,78.274 181.599,77.430 180.048 C 76.890 179.056,76.448 178.344,76.446 178.466 M321.608 181.532 C 319.507 184.805,315.670 188.178,311.839 190.118 C 311.277 190.402,310.817 190.696,310.817 190.771 C 310.817 191.024,314.534 188.909,315.862 187.901 C 318.573 185.841,322.998 180.850,322.528 180.381 C 322.467 180.320,322.053 180.838,321.608 181.532 M82.892 186.850 C 83.859 188.015,89.853 191.477,92.552 192.429 C 93.976 192.932,94.031 192.718,92.614 192.189 C 90.497 191.397,86.318 189.161,84.446 187.817 C 83.425 187.085,82.726 186.650,82.892 186.850 M309.375 191.346 C 308.912 191.599,308.602 191.811,308.685 191.817 C 308.933 191.833,310.577 191.109,310.577 190.982 C 310.577 190.773,310.231 190.877,309.375 191.346 M307.091 192.325 C 306.563 192.579,306.400 192.719,306.731 192.636 C 307.648 192.404,308.413 192.093,308.413 191.953 C 308.413 191.749,308.112 191.834,307.091 192.325 M93.990 192.887 C 93.990 193.035,97.930 194.234,98.331 194.208 C 98.522 194.196,97.704 193.873,96.514 193.491 C 94.329 192.789,93.990 192.708,93.990 192.887 M303.365 193.510 C 302.242 193.880,301.469 194.194,301.648 194.207 C 302.019 194.234,306.010 193.020,306.010 192.880 C 306.010 192.696,305.368 192.849,303.365 193.510 M98.798 194.299 C 98.798 194.496,102.365 195.236,102.827 195.135 C 103.057 195.085,102.542 194.911,101.683 194.748 C 100.823 194.586,99.823 194.390,99.459 194.314 C 99.096 194.237,98.798 194.231,98.798 194.299 M298.558 194.675 C 297.566 194.881,296.943 195.090,297.173 195.138 C 297.598 195.228,301.202 194.502,301.202 194.327 C 301.202 194.177,300.509 194.268,298.558 194.675 M294.591 195.433 L 293.870 195.616 294.591 195.616 C 294.988 195.616,295.637 195.534,296.034 195.433 L 296.755 195.249 296.034 195.249 C 295.637 195.249,294.988 195.332,294.591 195.433 " stroke="none" fill="#bfbfbf" fill-rule="evenodd"></path><path id="path3" d="M112.019 143.634 C 102.462 144.389,93.615 146.559,88.606 149.378 C 88.064 149.683,87.199 150.170,86.685 150.462 C 72.164 158.685,70.888 178.177,84.249 187.681 C 89.779 191.615,97.297 194.325,105.769 195.439 C 106.893 195.587,108.191 195.805,108.654 195.925 C 113.706 197.225,126.637 196.685,135.096 194.820 C 146.578 192.289,157.972 187.792,172.356 180.114 C 178.367 176.905,188.727 170.485,188.690 169.991 C 188.670 169.713,179.165 163.793,175.240 161.614 C 172.900 160.314,170.800 159.098,170.553 158.900 C 170.062 158.506,162.593 154.840,158.894 153.178 C 150.090 149.222,139.923 145.890,132.993 144.690 C 132.299 144.570,131.109 144.361,130.349 144.226 C 125.415 143.349,118.470 143.125,112.019 143.634 M276.202 143.562 C 262.327 144.435,241.667 151.531,226.202 160.736 C 225.078 161.405,222.536 162.918,220.553 164.099 C 215.808 166.923,211.325 169.788,211.310 170.005 C 211.284 170.390,219.601 175.647,225.000 178.658 C 238.076 185.951,249.390 190.726,261.298 193.981 C 270.802 196.578,283.091 197.307,292.067 195.805 C 292.530 195.728,293.666 195.551,294.591 195.412 C 314.067 192.491,325.000 183.294,325.000 169.832 C 325.000 161.931,320.538 154.554,313.268 150.435 C 312.779 150.158,311.936 149.683,311.394 149.378 C 308.958 148.007,303.380 146.096,299.279 145.228 C 293.347 143.972,291.811 143.820,281.010 143.416 C 280.150 143.384,277.987 143.450,276.202 143.562 " stroke="none" fill="#e5e5e5" fill-rule="evenodd"></path><path id="path4" d="M62.845 53.425 L 62.139 54.207 62.921 53.501 C 63.649 52.843,63.812 52.644,63.627 52.644 C 63.585 52.644,63.234 52.996,62.845 53.425 M336.298 52.719 C 336.298 52.761,336.650 53.112,337.079 53.501 L 337.861 54.207 337.155 53.425 C 336.496 52.697,336.298 52.534,336.298 52.719 M53.230 63.041 L 52.524 63.822 53.305 63.116 C 54.034 62.458,54.197 62.260,54.011 62.260 C 53.970 62.260,53.618 62.611,53.230 63.041 M345.913 62.335 C 345.913 62.376,346.265 62.728,346.695 63.116 L 347.476 63.822 346.770 63.041 C 346.112 62.313,345.913 62.149,345.913 62.335 M169.778 83.436 C 166.735 84.942,167.253 89.169,170.601 90.156 C 171.831 90.518,172.730 90.216,174.100 88.979 C 175.163 88.018,175.961 88.029,179.093 89.049 C 183.064 90.342,185.287 91.532,188.006 93.821 C 189.928 95.439,189.996 95.812,188.462 96.324 C 182.430 98.335,176.184 103.312,172.532 109.014 C 165.317 120.284,165.767 134.488,173.673 144.991 C 175.521 147.446,175.487 147.193,174.300 149.631 C 173.053 152.191,172.462 153.929,171.970 156.485 C 171.494 158.961,171.528 159.103,172.750 159.734 C 175.491 161.148,180.042 163.844,184.736 166.835 C 186.454 167.930,188.158 168.979,188.522 169.166 C 189.363 169.599,189.393 169.365,187.961 173.638 C 185.756 180.221,181.883 188.587,179.293 192.358 C 179.047 192.716,178.846 193.122,178.846 193.259 C 178.846 193.431,185.509 193.510,200.000 193.510 C 212.825 193.510,221.154 193.422,221.154 193.287 C 221.154 193.164,220.597 192.164,219.917 191.063 C 218.832 189.307,214.904 181.555,214.904 181.168 C 214.904 181.089,214.643 180.453,214.325 179.755 C 213.448 177.832,210.817 170.300,210.817 169.711 C 210.817 169.598,211.115 169.353,211.478 169.166 C 211.842 168.979,213.546 167.927,215.264 166.828 C 216.983 165.729,220.098 163.828,222.187 162.604 C 224.275 161.379,226.122 160.262,226.291 160.122 C 226.968 159.560,225.458 153.402,223.775 149.859 C 222.600 147.386,222.603 147.293,223.929 145.548 C 234.944 131.058,231.774 110.500,216.947 100.260 C 214.475 98.552,209.680 96.154,208.739 96.154 C 205.815 96.154,212.860 90.981,218.191 89.214 C 221.683 88.056,222.696 87.995,223.632 88.882 C 225.878 91.013,228.672 90.677,229.824 88.138 C 231.819 83.746,225.475 80.930,223.155 85.178 C 222.997 85.467,222.384 85.731,221.373 85.943 C 215.638 87.147,210.733 89.683,206.674 93.543 L 204.928 95.203 203.606 95.017 C 201.901 94.778,196.485 94.778,194.471 95.017 L 192.909 95.203 191.587 93.933 C 187.245 89.762,182.488 87.222,176.848 86.064 C 175.657 85.819,175.264 85.590,174.188 84.514 C 173.380 83.706,172.638 83.193,172.129 83.092 C 170.995 82.865,170.904 82.878,169.778 83.436 M152.071 219.291 C 152.003 219.853,151.809 221.340,151.639 222.596 C 151.036 227.044,151.245 237.027,152.055 242.428 L 152.163 243.149 198.815 243.149 C 241.677 243.149,245.484 243.117,245.685 242.757 C 246.837 240.701,246.729 220.413,245.556 218.515 C 245.453 218.349,230.346 218.269,198.799 218.269 L 152.193 218.269 152.071 219.291 M160.096 268.161 C 160.096 268.300,160.193 268.516,160.311 268.642 C 160.428 268.767,161.200 270.168,162.024 271.755 C 162.849 273.341,163.726 274.927,163.973 275.277 C 164.221 275.628,164.423 275.971,164.423 276.040 C 164.423 276.208,166.314 279.244,168.866 283.173 C 170.866 286.252,174.420 291.147,175.412 292.188 C 175.864 292.662,176.183 292.668,199.053 292.668 L 222.236 292.668 223.860 290.505 C 227.679 285.418,232.362 278.150,234.855 273.438 C 235.555 272.115,236.436 270.459,236.814 269.757 C 237.191 269.055,237.500 268.351,237.500 268.194 C 237.500 267.975,228.530 267.909,198.798 267.909 C 171.928 267.909,160.096 267.986,160.096 268.161 M52.644 336.373 C 52.644 336.415,52.996 336.766,53.425 337.155 L 54.207 337.861 53.501 337.079 C 52.843 336.351,52.644 336.188,52.644 336.373 M346.034 337.500 C 345.383 338.161,344.935 338.702,345.038 338.702 C 345.142 338.702,345.354 338.560,345.510 338.387 C 345.666 338.214,346.166 337.673,346.622 337.185 C 347.849 335.871,347.403 336.109,346.034 337.500 M337.124 346.458 L 336.178 347.475 337.137 346.634 C 337.664 346.172,338.142 345.766,338.198 345.733 C 338.255 345.700,338.249 345.621,338.186 345.557 C 338.122 345.494,337.644 345.899,337.124 346.458 M62.260 345.989 C 62.260 346.030,62.611 346.382,63.041 346.770 L 63.822 347.476 63.116 346.695 C 62.458 345.966,62.260 345.803,62.260 345.989 " stroke="none" fill="#333333" fill-rule="evenodd"></path><path id="path5" d="M62.845 53.425 L 62.139 54.207 62.921 53.501 C 63.649 52.843,63.812 52.644,63.627 52.644 C 63.585 52.644,63.234 52.996,62.845 53.425 M336.298 52.719 C 336.298 52.761,336.650 53.112,337.079 53.501 L 337.861 54.207 337.155 53.425 C 336.496 52.697,336.298 52.534,336.298 52.719 M53.230 63.041 L 52.524 63.822 53.305 63.116 C 54.034 62.458,54.197 62.260,54.011 62.260 C 53.970 62.260,53.618 62.611,53.230 63.041 M345.913 62.335 C 345.913 62.376,346.265 62.728,346.695 63.116 L 347.476 63.822 346.770 63.041 C 346.112 62.313,345.913 62.149,345.913 62.335 M169.778 83.436 C 166.735 84.942,167.253 89.169,170.601 90.156 C 171.831 90.518,172.730 90.216,174.100 88.979 C 175.163 88.018,175.961 88.029,179.093 89.049 C 183.064 90.342,185.287 91.532,188.006 93.821 C 189.928 95.439,189.996 95.812,188.462 96.324 C 182.430 98.335,176.184 103.312,172.532 109.014 C 165.317 120.284,165.767 134.488,173.673 144.991 C 175.521 147.446,175.487 147.193,174.300 149.631 C 173.053 152.191,172.462 153.929,171.970 156.485 C 171.494 158.961,171.528 159.103,172.750 159.734 C 175.491 161.148,180.042 163.844,184.736 166.835 C 186.454 167.930,188.158 168.979,188.522 169.166 C 189.363 169.599,189.393 169.365,187.961 173.638 C 185.756 180.221,181.883 188.587,179.293 192.358 C 179.047 192.716,178.846 193.122,178.846 193.259 C 178.846 193.431,185.509 193.510,200.000 193.510 C 212.825 193.510,221.154 193.422,221.154 193.287 C 221.154 193.164,220.597 192.164,219.917 191.063 C 218.832 189.307,214.904 181.555,214.904 181.168 C 214.904 181.089,214.643 180.453,214.325 179.755 C 213.448 177.832,210.817 170.300,210.817 169.711 C 210.817 169.598,211.115 169.353,211.478 169.166 C 211.842 168.979,213.546 167.927,215.264 166.828 C 216.983 165.729,220.098 163.828,222.187 162.604 C 224.275 161.379,226.122 160.262,226.291 160.122 C 226.968 159.560,225.458 153.402,223.775 149.859 C 222.600 147.386,222.603 147.293,223.929 145.548 C 234.944 131.058,231.774 110.500,216.947 100.260 C 214.475 98.552,209.680 96.154,208.739 96.154 C 205.815 96.154,212.860 90.981,218.191 89.214 C 221.683 88.056,222.696 87.995,223.632 88.882 C 225.878 91.013,228.672 90.677,229.824 88.138 C 231.819 83.746,225.475 80.930,223.155 85.178 C 222.997 85.467,222.384 85.731,221.373 85.943 C 215.638 87.147,210.733 89.683,206.674 93.543 L 204.928 95.203 203.606 95.017 C 201.901 94.778,196.485 94.778,194.471 95.017 L 192.909 95.203 191.587 93.933 C 187.245 89.762,182.488 87.222,176.848 86.064 C 175.657 85.819,175.264 85.590,174.188 84.514 C 173.380 83.706,172.638 83.193,172.129 83.092 C 170.995 82.865,170.904 82.878,169.778 83.436 M152.071 219.291 C 152.003 219.853,151.809 221.340,151.639 222.596 C 151.036 227.044,151.245 237.027,152.055 242.428 L 152.163 243.149 198.815 243.149 C 241.677 243.149,245.484 243.117,245.685 242.757 C 246.837 240.701,246.729 220.413,245.556 218.515 C 245.453 218.349,230.346 218.269,198.799 218.269 L 152.193 218.269 152.071 219.291 M160.096 268.161 C 160.096 268.300,160.193 268.516,160.311 268.642 C 160.428 268.767,161.200 270.168,162.024 271.755 C 162.849 273.341,163.726 274.927,163.973 275.277 C 164.221 275.628,164.423 275.971,164.423 276.040 C 164.423 276.208,166.314 279.244,168.866 283.173 C 170.866 286.252,174.420 291.147,175.412 292.188 C 175.864 292.662,176.183 292.668,199.053 292.668 L 222.236 292.668 223.860 290.505 C 227.679 285.418,232.362 278.150,234.855 273.438 C 235.555 272.115,236.436 270.459,236.814 269.757 C 237.191 269.055,237.500 268.351,237.500 268.194 C 237.500 267.975,228.530 267.909,198.798 267.909 C 171.928 267.909,160.096 267.986,160.096 268.161 M52.644 336.373 C 52.644 336.415,52.996 336.766,53.425 337.155 L 54.207 337.861 53.501 337.079 C 52.843 336.351,52.644 336.188,52.644 336.373 M346.034 337.500 C 345.383 338.161,344.935 338.702,345.038 338.702 C 345.142 338.702,345.354 338.560,345.510 338.387 C 345.666 338.214,346.166 337.673,346.622 337.185 C 347.849 335.871,347.403 336.109,346.034 337.500 M337.124 346.458 L 336.178 347.475 337.137 346.634 C 337.664 346.172,338.142 345.766,338.198 345.733 C 338.255 345.700,338.249 345.621,338.186 345.557 C 338.122 345.494,337.644 345.899,337.124 346.458 M62.260 345.989 C 62.260 346.030,62.611 346.382,63.041 346.770 L 63.822 347.476 63.116 346.695 C 62.458 345.966,62.260 345.803,62.260 345.989 " stroke="none" fill="#333333" fill-rule="evenodd"></path><path id="path6" d="M177.291 195.332 C 173.240 201.421,168.053 207.096,163.341 210.594 C 162.416 211.282,161.605 211.923,161.538 212.020 C 161.357 212.285,154.899 216.106,154.632 216.106 C 154.504 216.106,153.953 216.429,153.408 216.824 C 151.267 218.375,147.936 218.269,198.944 218.269 L 245.192 218.269 245.192 217.194 L 245.192 216.119 243.329 215.015 C 239.678 212.852,238.580 212.178,238.462 212.026 C 238.395 211.941,237.451 211.199,236.363 210.376 C 231.659 206.819,226.181 200.746,222.338 194.827 L 221.480 193.504 200.032 193.447 L 178.584 193.389 177.291 195.332 M180.513 194.712 C 180.923 194.712,181.023 194.612,180.909 194.316 C 180.665 193.679,198.011 193.968,198.480 194.609 C 198.934 195.229,198.950 217.537,198.498 217.570 C 197.534 217.641,153.768 217.550,153.695 217.477 C 153.646 217.428,153.904 217.252,154.267 217.085 C 154.631 216.919,155.252 216.609,155.649 216.398 C 156.046 216.187,156.960 215.706,157.682 215.331 C 158.403 214.955,159.192 214.435,159.434 214.175 C 159.676 213.915,159.986 213.702,160.122 213.702 C 160.259 213.702,160.842 213.377,161.418 212.981 C 161.995 212.584,162.526 212.260,162.598 212.260 C 162.671 212.260,163.179 211.773,163.728 211.178 C 164.276 210.583,164.854 210.096,165.011 210.096 C 165.169 210.096,165.519 209.853,165.788 209.555 C 166.058 209.258,167.484 207.883,168.957 206.500 C 170.429 205.117,171.635 203.873,171.636 203.735 C 171.637 203.598,172.222 202.917,172.937 202.223 C 173.652 201.528,174.729 200.212,175.332 199.297 C 175.935 198.382,176.541 197.564,176.679 197.478 C 176.817 197.393,177.080 196.979,177.263 196.558 C 177.890 195.115,179.118 193.944,179.572 194.355 C 179.789 194.551,180.212 194.712,180.513 194.712 M152.415 243.376 C 152.174 243.667,152.157 243.904,152.347 244.321 C 152.486 244.628,152.672 245.517,152.760 246.297 C 152.848 247.078,153.073 248.203,153.260 248.798 C 153.448 249.393,153.757 250.475,153.947 251.202 C 154.136 251.929,154.420 253.011,154.576 253.606 C 154.733 254.201,155.065 255.150,155.315 255.716 C 155.565 256.281,155.769 256.910,155.769 257.113 C 155.769 257.317,155.971 257.990,156.217 258.609 C 156.463 259.229,156.903 260.385,157.193 261.178 C 157.738 262.666,158.379 264.127,159.164 265.673 C 159.412 266.162,159.615 266.713,159.615 266.897 C 159.615 268.090,157.510 268.029,198.577 268.025 C 239.343 268.022,237.514 268.077,238.149 266.823 C 238.901 265.339,240.385 261.967,240.385 261.741 C 240.385 261.603,240.545 261.150,240.741 260.733 C 240.937 260.317,241.255 259.489,241.448 258.894 C 241.640 258.299,242.129 256.912,242.533 255.812 C 242.938 254.712,243.270 253.576,243.271 253.288 C 243.272 253.000,243.433 252.456,243.630 252.078 C 243.827 251.701,244.088 250.781,244.211 250.035 C 244.334 249.289,244.591 248.299,244.782 247.837 C 245.197 246.829,245.521 243.592,245.224 243.409 C 244.603 243.025,152.733 242.993,152.415 243.376 M198.534 243.841 C 198.737 244.087,198.805 247.214,198.786 255.442 C 198.760 266.796,198.683 267.831,197.906 267.350 C 197.761 267.261,196.739 267.206,195.636 267.229 C 189.547 267.357,162.315 267.315,161.959 267.178 C 161.728 267.089,161.380 267.077,161.187 267.151 C 160.728 267.327,159.856 266.218,159.856 265.458 C 159.856 265.138,159.764 264.932,159.651 265.002 C 159.539 265.071,159.300 264.672,159.120 264.115 C 158.941 263.557,158.721 263.047,158.632 262.981 C 158.441 262.839,157.696 260.717,157.536 259.856 C 157.474 259.525,157.322 259.219,157.197 259.175 C 157.073 259.131,156.971 258.894,156.971 258.648 C 156.971 258.402,156.863 258.135,156.731 258.053 C 156.599 257.971,156.490 257.647,156.490 257.332 C 156.490 257.017,156.382 256.692,156.250 256.611 C 156.118 256.529,156.010 256.204,156.010 255.889 C 156.010 255.574,155.901 255.250,155.769 255.168 C 155.637 255.087,155.529 254.790,155.529 254.510 C 155.529 253.896,155.118 252.544,154.357 250.650 C 154.208 250.280,154.087 249.550,154.087 249.027 C 154.087 248.505,154.003 248.077,153.901 248.077 C 153.571 248.077,153.137 245.584,153.285 244.536 L 153.427 243.519 175.841 243.512 C 194.750 243.506,198.298 243.558,198.534 243.841 M176.506 292.699 C 175.808 292.998,177.658 295.445,183.748 302.279 C 189.050 308.229,197.879 316.587,198.862 316.587 C 199.547 316.587,201.465 315.166,203.360 313.255 C 203.837 312.774,205.142 311.511,206.261 310.450 C 208.812 308.028,213.313 303.342,214.423 301.952 C 214.886 301.372,215.679 300.453,216.185 299.908 C 217.892 298.074,221.050 294.116,221.338 293.450 L 221.624 292.788 213.997 292.774 C 209.802 292.767,199.718 292.718,191.587 292.666 C 183.456 292.615,176.669 292.629,176.506 292.699 M180.409 293.514 C 180.673 293.519,184.823 293.513,189.631 293.503 C 194.438 293.493,198.441 293.553,198.525 293.637 C 198.763 293.875,198.956 315.307,198.722 315.541 C 198.230 316.033,193.668 311.888,186.899 304.798 C 183.868 301.623,181.971 299.443,181.970 299.133 C 181.970 299.015,181.673 298.716,181.309 298.469 C 180.946 298.222,180.108 297.326,179.447 296.476 C 178.786 295.627,178.043 294.677,177.796 294.365 C 177.179 293.588,177.399 293.379,178.763 293.448 C 179.404 293.481,180.144 293.510,180.409 293.514 " stroke="none" fill="#dc9f09" fill-rule="evenodd"></path><path id="path7" d="M178.387 194.896 C 177.951 195.390,177.445 196.137,177.263 196.558 C 177.080 196.979,176.817 197.393,176.679 197.478 C 176.541 197.564,175.935 198.382,175.332 199.297 C 174.729 200.212,173.652 201.528,172.937 202.223 C 172.222 202.917,171.637 203.598,171.636 203.735 C 171.635 203.873,170.429 205.117,168.957 206.500 C 167.484 207.883,166.058 209.258,165.788 209.555 C 165.519 209.853,165.169 210.096,165.011 210.096 C 164.854 210.096,164.276 210.583,163.728 211.178 C 163.179 211.773,162.671 212.260,162.598 212.260 C 162.526 212.260,161.995 212.584,161.418 212.981 C 160.842 213.377,160.259 213.702,160.122 213.702 C 159.986 213.702,159.676 213.915,159.434 214.175 C 159.192 214.435,158.403 214.955,157.682 215.331 C 156.960 215.706,156.046 216.187,155.649 216.398 C 155.252 216.609,154.631 216.919,154.267 217.085 C 153.904 217.252,153.646 217.428,153.695 217.477 C 153.768 217.550,197.534 217.641,198.498 217.570 C 198.950 217.537,198.934 195.229,198.480 194.609 C 198.011 193.968,180.665 193.679,180.909 194.316 C 181.108 194.833,180.131 194.862,179.572 194.355 C 179.219 194.036,179.098 194.091,178.387 194.896 M153.285 244.536 C 153.137 245.584,153.571 248.077,153.901 248.077 C 154.003 248.077,154.087 248.505,154.087 249.027 C 154.087 249.550,154.208 250.280,154.357 250.650 C 155.118 252.544,155.529 253.896,155.529 254.510 C 155.529 254.790,155.637 255.087,155.769 255.168 C 155.901 255.250,156.010 255.574,156.010 255.889 C 156.010 256.204,156.118 256.529,156.250 256.611 C 156.382 256.692,156.490 257.017,156.490 257.332 C 156.490 257.647,156.599 257.971,156.731 258.053 C 156.863 258.135,156.971 258.402,156.971 258.648 C 156.971 258.894,157.073 259.131,157.197 259.175 C 157.322 259.219,157.474 259.525,157.536 259.856 C 157.696 260.717,158.441 262.839,158.632 262.981 C 158.721 263.047,158.941 263.557,159.120 264.115 C 159.300 264.672,159.539 265.071,159.651 265.002 C 159.764 264.932,159.856 265.138,159.856 265.458 C 159.856 266.218,160.728 267.327,161.187 267.151 C 161.380 267.077,161.728 267.089,161.959 267.178 C 162.315 267.315,189.547 267.357,195.636 267.229 C 196.739 267.206,197.761 267.261,197.906 267.350 C 198.683 267.831,198.760 266.796,198.786 255.442 C 198.805 247.214,198.737 244.087,198.534 243.841 C 198.298 243.558,194.750 243.506,175.841 243.512 L 153.427 243.519 153.285 244.536 M177.472 293.594 C 177.403 293.706,177.548 294.053,177.796 294.365 C 178.043 294.677,178.786 295.627,179.447 296.476 C 180.108 297.326,180.946 298.222,181.309 298.469 C 181.673 298.716,181.970 299.015,181.970 299.133 C 181.971 299.443,183.868 301.623,186.899 304.798 C 193.668 311.888,198.230 316.033,198.722 315.541 C 198.956 315.307,198.763 293.875,198.525 293.637 C 198.441 293.553,194.438 293.493,189.631 293.503 C 179.765 293.524,180.327 293.527,178.763 293.448 C 178.122 293.416,177.541 293.481,177.472 293.594 " stroke="none" fill="#eeac05" fill-rule="evenodd"></path><path id="path8" d="M304.220 28.867 C 304.294 28.988,304.502 29.087,304.682 29.087 C 304.861 29.087,305.063 29.222,305.129 29.387 C 305.217 29.604,305.256 29.608,305.269 29.401 C 305.290 29.096,304.881 28.769,304.386 28.694 C 304.220 28.669,304.145 28.747,304.220 28.867 M316.106 36.538 C 316.106 36.686,315.998 36.740,315.865 36.659 C 315.733 36.577,315.625 36.625,315.625 36.765 C 315.625 37.071,315.870 37.085,316.312 36.805 C 316.539 36.661,316.557 36.549,316.372 36.434 C 316.225 36.344,316.106 36.391,316.106 36.538 M363.329 83.874 C 363.403 83.995,363.329 84.148,363.163 84.215 C 362.996 84.282,363.117 84.346,363.431 84.356 C 363.911 84.372,363.954 84.318,363.702 84.014 C 363.375 83.621,363.111 83.521,363.329 83.874 M187.186 310.009 C 187.101 310.094,187.087 310.252,187.154 310.360 C 187.304 310.602,187.981 310.365,187.981 310.070 C 187.981 309.824,187.415 309.780,187.186 310.009 M199.171 320.654 C 199.001 320.927,199.680 321.635,200.112 321.635 C 200.477 321.635,200.699 321.173,200.546 320.733 C 200.424 320.386,199.374 320.325,199.171 320.654 " stroke="none" fill="#04acc4" fill-rule="evenodd"></path></g></svg>